<?xml version="1.0" encoding="UTF-8"?>
<svg xmlns="http://www.w3.org/2000/svg" xmlns:xlink="http://www.w3.org/1999/xlink" viewBox="0 0 50 50" width="50px" height="50px">
<g id="surface182310699">
<path style=" stroke:none;fill-rule:nonzero;fill:#FCB83F;fill-opacity:1;" d="M 25 2 C 12.316406 2 2 12.316406 2 25 C 2 37.683594 12.316406 48 25 48 C 37.683594 48 48 37.683594 48 25 C 48 12.316406 37.683594 2 25 2 Z M 21 10 L 23 10 L 23 13 L 25 13 L 25 10 L 27 10 L 27 13.015625 C 29.0625 13.109375 33.902344 13.796875 33.902344 18.902344 C 33.902344 23 30.398438 24.101562 29.699219 24.300781 L 29.699219 24.402344 C 31.199219 24.601562 34.800781 26 34.800781 30.199219 C 34.800781 36.277344 29.300781 36.925781 27 36.992188 L 27 40 L 25 40 L 25 37 L 23 37 L 23 40 L 21 40 L 21 37 L 16 37 L 16 13 L 21 13 Z M 18.300781 14.902344 L 18.300781 23.5 L 26.199219 23.5 C 27.097656 23.5 27.898438 23.398438 28.597656 23.199219 C 29.300781 23 29.800781 22.699219 30.300781 22.300781 C 30.699219 21.902344 31.101562 21.5 31.300781 21 C 31.5 20.5 31.597656 20 31.597656 19.402344 C 31.597656 16.402344 29.800781 14.902344 26.199219 14.902344 Z M 18.300781 25.5 L 18.300781 35.097656 L 26.199219 35.097656 C 27.097656 35.097656 27.898438 35 28.597656 34.898438 C 29.398438 34.800781 30 34.5 30.597656 34.097656 C 31.199219 33.699219 31.601562 33.199219 32 32.597656 C 32.300781 32 32.5 31.199219 32.5 30.199219 C 32.5 28.699219 32 27.5 30.902344 26.699219 C 29.800781 25.898438 28.199219 25.5 26.199219 25.5 Z M 18.300781 25.5 "/>
</g>
</svg>
