<?xml version="1.0" encoding="UTF-8"?>
<svg xmlns="http://www.w3.org/2000/svg" xmlns:xlink="http://www.w3.org/1999/xlink" viewBox="0 0 48 48" width="48px" height="48px">
<g id="surface182306712">
<path style=" stroke:none;fill-rule:nonzero;fill:#FCB83F;fill-opacity:1;" d="M 44 24 C 44 35.046875 35.046875 44 24 44 C 12.953125 44 4 35.046875 4 24 C 4 12.953125 12.953125 4 24 4 C 35.046875 4 44 12.953125 44 24 Z M 44 24 "/>
<path style=" stroke:none;fill-rule:nonzero;fill:rgb(100%,100%,100%);fill-opacity:1;" d="M 15 13 L 33 13 L 33 18 L 15 18 Z M 15 13 "/>
<path style=" stroke:none;fill-rule:nonzero;fill:rgb(100%,100%,100%);fill-opacity:1;" d="M 24 21 C 19.542969 21 12 21.738281 12 24.5 C 12 27.261719 19.542969 28 24 28 C 28.457031 28 36 27.261719 36 24.5 C 36 21.738281 28.457031 21 24 21 Z M 24 26 C 18.476562 26 14 25.105469 14 24 C 14 22.894531 18.476562 22 24 22 C 29.523438 22 34 22.894531 34 24 C 34 25.105469 29.523438 26 24 26 Z M 24 26 "/>
<path style=" stroke:none;fill-rule:nonzero;fill:rgb(100%,100%,100%);fill-opacity:1;" d="M 24 24 C 25.09375 24 26.09375 23.964844 27 23.902344 L 27 13 L 21 13 L 21 23.902344 C 21.90625 23.964844 22.90625 24 24 24 Z M 24 24 "/>
<path style=" stroke:none;fill-rule:nonzero;fill:rgb(100%,100%,100%);fill-opacity:1;" d="M 25.722656 25.96875 C 25.613281 25.972656 25.5 25.976562 25.386719 25.976562 C 24.933594 25.992188 24.472656 26 24 26 C 23.527344 26 23.066406 25.992188 22.613281 25.980469 C 22.5 25.976562 22.386719 25.972656 22.277344 25.96875 C 21.84375 25.953125 21.414062 25.933594 21 25.910156 L 21 36 L 27 36 L 27 25.90625 C 26.585938 25.933594 26.15625 25.953125 25.722656 25.96875 Z M 25.722656 25.96875 "/>
</g>
</svg>
