<svg xmlns="http://www.w3.org/2000/svg"  viewBox="0 0 226 226" width="50px" height="50px"><g fill="none" stroke-miterlimit="10" font-family="none" font-size="none" font-weight="none" text-anchor="none" style="mix-blend-mode:normal"><path d="M0,226v-226h226v226z"/><path fill="#FCB83F" d="M113,226c-62.40818,0 -113,-50.59182 -113,-113v0c0,-62.40818 50.59182,-113 113,-113h0c62.40818,0 113,50.59182 113,113v0c0,62.40818 -50.59182,113 -113,113z"/><path fill="#fff" d="M117.46537,28.33649c-1.33381,0.02197 -2.54103,0.7948 -3.11933,1.99692l-49.1105,77.17759c-0.08098,0.11933 -0.15457,0.24351 -0.22035,0.37184c-0.0023,0.00229 -0.00459,0.00459 -0.00689,0.00689c-0.05105,0.10327 -0.09702,0.20898 -0.13772,0.31675c-0.08462,0.22044 -0.14691,0.44882 -0.18592,0.68171c-0.03946,0.23193 -0.05561,0.46722 -0.0482,0.70237c0,0.0023 0,0.00459 0,0.00689c0.00355,0.11515 0.01274,0.23005 0.02754,0.3443c0.00436,0.023 0.00895,0.04595 0.01377,0.06886c0.02827,0.17502 0.06971,0.34766 0.12395,0.51644c0.00872,0.03226 0.01791,0.0644 0.02755,0.0964c0,0.0023 0,0.00459 0,0.00689c0.03824,0.10997 0.0819,0.21799 0.13083,0.32364c0,0.0023 0,0.00459 0,0.00689c0.05011,0.10363 0.10526,0.20474 0.16526,0.30298c0,0.0023 0,0.00459 0,0.00689c0.05947,0.09951 0.12382,0.19603 0.1928,0.28921c0.03348,0.0421 0.06792,0.08342 0.10329,0.12395c0.03991,0.05163 0.08124,0.10215 0.12395,0.15149c0.07623,0.08652 0.15667,0.16925 0.24101,0.24789c0.00229,0.0023 0.00459,0.0046 0.00689,0.00689c0.17189,0.15571 0.35872,0.2941 0.55776,0.41315c0.00229,0.0023 0.00459,0.00459 0.00689,0.00689c0.01828,0.00934 0.03665,0.01852 0.05509,0.02755c0.00229,0.0023 0.00459,0.00459 0.00689,0.00689l48.91081,27.95002c1.27443,1.00606 3.07114,1.01174 4.35191,0.01377l48.8695,-27.92936c0.02542,-0.01346 0.05067,-0.02723 0.07575,-0.04131c0.07756,-0.04529 0.15336,-0.09353 0.22724,-0.14461c0.02314,-0.01579 0.0461,-0.03186 0.06886,-0.0482c0.01619,-0.01363 0.03226,-0.0274 0.0482,-0.04132c0.07312,-0.05009 0.14432,-0.10292 0.21346,-0.15838c0.0046,-0.00458 0.00919,-0.00917 0.01377,-0.01377c0.01386,-0.01137 0.02763,-0.02285 0.04132,-0.03443c0.07417,-0.06808 0.14539,-0.1393 0.21346,-0.21346c0.08016,-0.08568 0.156,-0.17531 0.22724,-0.26855c0.06879,-0.09094 0.13314,-0.18516 0.1928,-0.28232c0.0023,-0.00229 0.00459,-0.00459 0.00689,-0.00689c0.00232,-0.00688 0.00461,-0.01377 0.00689,-0.02066c0.05942,-0.0915 0.11457,-0.18571 0.16526,-0.28232c0,-0.0023 0,-0.00459 0,-0.00689c0.03989,-0.08119 0.07664,-0.16388 0.11017,-0.24789c0.00947,-0.02514 0.01865,-0.05039 0.02754,-0.07575c0.00952,-0.02743 0.0187,-0.05497 0.02755,-0.08263c0.0258,-0.0795 0.04877,-0.15988 0.06886,-0.24101c0.00231,-0.00459 0.0046,-0.00918 0.00689,-0.01377c0.00232,-0.00688 0.00461,-0.01376 0.00689,-0.02066c0.02569,-0.10686 0.04637,-0.21485 0.06197,-0.32364c0.01491,-0.08904 0.0264,-0.17863 0.03443,-0.26855c0.00004,-0.00918 0.00004,-0.01836 0,-0.02755c0.00725,-0.10772 0.00955,-0.21571 0.00689,-0.32364c-0.00257,-0.06898 -0.00716,-0.13787 -0.01377,-0.20658c-0.00458,-0.07365 -0.01147,-0.14713 -0.02066,-0.22035c0,-0.0023 0,-0.00459 0,-0.00689c-0.00224,-0.01149 -0.00453,-0.02297 -0.00689,-0.03443c-0.01642,-0.09954 -0.03709,-0.19833 -0.06197,-0.29609c0.00001,-0.00459 0.00001,-0.00918 0,-0.01377c-0.02187,-0.08816 -0.04713,-0.17545 -0.07574,-0.26166c-0.00889,-0.02535 -0.01808,-0.0506 -0.02755,-0.07575c-0.01113,-0.02769 -0.0226,-0.05523 -0.03443,-0.08263c-0.02932,-0.07917 -0.06148,-0.15726 -0.0964,-0.23412c-0.00229,-0.0023 -0.00459,-0.00459 -0.00689,-0.00689c-0.00227,-0.00689 -0.00457,-0.01378 -0.00689,-0.02066c-0.0505,-0.09895 -0.10565,-0.19546 -0.16526,-0.28921c-0.00682,-0.01152 -0.01371,-0.02299 -0.02066,-0.03443c-0.00455,-0.0092 -0.00914,-0.01838 -0.01377,-0.02754l-0.11018,-0.16526l-49.06231,-77.10184c-0.59939,-1.22533 -1.85179,-1.995 -3.21573,-1.97626zM113.99485,44.02265v41.96979l-36.72271,15.73436zM121.04605,44.02265l36.72271,57.70415l-36.72271,-15.73436zM113.99485,93.66338v37.93463l-37.92774,-21.67005zM121.04605,93.66338l37.92774,16.26458l-37.92774,21.67005zM166.90639,123.569c-0.62316,-0.00366 -1.23616,0.15791 -1.77657,0.46824l-47.60937,27.20634l-47.60937,-27.20634c-0.51264,-0.29192 -1.09034,-0.45055 -1.68017,-0.46136c-1.34275,-0.0262 -2.58378,0.71267 -3.20071,1.90559c-0.61693,1.19292 -0.5026,2.63272 0.29485,3.71334l49.12428,66.66965c0.6248,1.10553 1.79581,1.78969 3.06568,1.79111c1.26987,0.00143 2.44241,-0.6801 3.06969,-1.78422l49.13116,-66.67653c0.79084,-1.0667 0.91532,-2.48726 0.32206,-3.67524c-0.59327,-1.18799 -1.80366,-1.94192 -3.13152,-1.95057zM80.90104,138.44263l33.09382,18.91567v26.0013zM154.13987,138.44263l-33.09382,44.91697v-26.0013z"/><path d="M113,226c-62.40818,0 -113,-50.59182 -113,-113v0c0,-62.40818 50.59182,-113 113,-113h0c62.40818,0 113,50.59182 113,113v0c0,62.40818 -50.59182,113 -113,113z"/><path d="M113,221.48c-59.91185,0 -108.48,-48.56815 -108.48,-108.48v0c0,-59.91185 48.56815,-108.48 108.48,-108.48v0c59.91185,0 108.48,48.56815 108.48,108.48v0c0,59.91185 -48.56815,108.48 -108.48,108.48z"/></g></svg>