<svg width="347" height="292" viewBox="0 0 347 292" fill="none" xmlns="http://www.w3.org/2000/svg">
<path d="M128.693 131.51C129.389 135.768 129.837 147.203 128.045 153.647C129.765 155.547 136.057 165.54 143.444 166.05C159.393 167.15 165.153 153.642 167.125 151.832C164.717 144.426 164.759 131.911 165.108 129.258C156.824 133.788 151.124 135.735 143.92 135.543C138.001 135.387 128.693 131.51 128.693 131.51Z" fill="#F7967C"/>
<path d="M98.5325 261.466C83.7045 268.962 60.8072 279.215 50.7792 276.258C38.3139 272.583 37.6885 254.443 43.1645 239.696C49.0619 223.81 71.5459 184.715 85.2192 170.811C96.6819 159.154 106.043 156.858 127.855 153.064C128.299 150.372 128.439 149.323 128.663 147.662C132.503 149.132 140.509 149.632 146.206 149.407C151.927 149.182 162.039 147.347 166.174 145.244C166.373 146.392 166.53 147.082 167.162 150.279C175.179 150.215 182.115 150.55 189.083 152.36C208.11 157.307 233.785 172.675 246.698 185.315C265.325 203.546 275.481 217.75 274.655 229.227C273.831 240.706 265.442 246.986 252.467 245.754C244.621 245.008 221.657 235.523 204.283 227.85L205.885 291.148H98.5365L98.5325 261.466Z" fill="#F03B2B"/>
<path d="M109.615 94.0352C109.615 84.9058 100.754 75.2338 106.347 61.8698C110.413 52.1565 123.746 53.2738 138.542 45.5178C147.451 40.8485 158.117 45.4045 165.094 52.7338C167.35 53.0085 167.151 51.2645 165.01 49.5632C165.01 49.5632 169.89 48.6805 169.93 53.3965C169.93 53.3965 172.199 53.0232 174.497 53.9805C174.497 53.9805 172.73 54.4952 173.135 56.2538C186.161 62.8112 182.297 77.7845 179.942 90.8952L109.615 94.0352Z" fill="#2D2F33"/>
<path d="M115.67 92.1804C115.296 74.8804 145.204 83.2724 160.984 71.4657C161.963 75.0377 170.64 75.7924 172.291 90.471C172.434 91.743 175.527 90.1924 176.571 90.9537C177.64 90.6004 178.8 90.4364 180.012 90.507C184.276 90.751 187.863 94.0017 188.519 98.2217C189.374 103.726 185.267 108.598 179.859 108.835C178.451 108.898 177.103 108.639 175.886 108.124C174.746 119.804 169.826 126.231 164.044 131.258L130.872 134.484C122 129.143 117.207 120.719 115.49 110.852L115.478 110.791C114.31 111.411 112.991 111.787 111.583 111.85C106.175 112.088 101.655 107.598 102.022 102.04C102.298 97.8564 105.47 94.3364 109.604 93.639C110.75 93.4444 111.87 93.467 112.928 93.671L115.67 92.1804Z" fill="#F7967C"/>
<path d="M105.974 101.949C105.926 101.949 105.876 101.945 105.827 101.937C105.351 101.857 105.031 101.407 105.111 100.929C105.368 99.4092 106.206 98.1079 107.47 97.2679C108.904 96.3146 110.802 96.0226 112.675 96.4612C113.144 96.5719 113.436 97.0412 113.326 97.5119C113.215 97.9799 112.744 98.2719 112.275 98.1612C110.87 97.8319 109.471 98.0359 108.436 98.7239C107.567 99.3026 107.012 100.165 106.835 101.221C106.762 101.648 106.392 101.949 105.974 101.949Z" fill="#CF4241"/>
<path d="M184.846 98.4688C184.458 98.4688 184.103 98.2087 184 97.8154C183.731 96.7781 183.102 95.9674 182.184 95.4688C181.095 94.8754 179.682 94.7941 178.312 95.2474C177.852 95.3981 177.359 95.1501 177.207 94.6914C177.056 94.2328 177.306 93.7394 177.763 93.5874C179.591 92.9848 181.507 93.1101 183.019 93.9341C184.352 94.6594 185.302 95.8808 185.692 97.3741C185.814 97.8394 185.535 98.3181 185.068 98.4408C184.994 98.4594 184.919 98.4688 184.846 98.4688Z" fill="#CF4241"/>
<path d="M131.812 95.6382C131.898 97.5662 131.05 99.1689 129.919 99.2195C128.788 99.2689 127.803 97.7462 127.718 95.8195C127.632 93.8915 128.48 92.2889 129.611 92.2382C130.742 92.1889 131.727 93.7115 131.812 95.6382Z" fill="#2D2F33"/>
<path d="M158.429 94.4621C158.515 96.3888 159.5 97.9114 160.631 97.8621C161.761 97.8128 162.609 96.2101 162.524 94.2808C162.439 92.3541 161.453 90.8314 160.323 90.8808C159.192 90.9328 158.344 92.5354 158.429 94.4621Z" fill="#2D2F33"/>
<path d="M121.625 89.0508C121.397 89.0508 121.167 88.9788 120.971 88.8321C120.488 88.4694 120.391 87.7854 120.753 87.3028C123.973 83.0134 128.105 81.5641 134.572 82.4534C135.171 82.5361 135.588 83.0868 135.505 83.6854C135.424 84.2828 134.876 84.6974 134.275 84.6174C128.627 83.8401 125.215 84.9988 122.5 88.6148C122.285 88.9001 121.957 89.0508 121.625 89.0508Z" fill="#2D2F33"/>
<path d="M166.744 86.582C166.511 86.582 166.276 86.5087 166.079 86.3554C162.559 83.6487 157.967 83.118 153.792 84.938C153.239 85.1794 152.596 84.926 152.355 84.3727C152.113 83.8207 152.367 83.1754 152.919 82.9354C157.833 80.7927 163.251 81.4247 167.411 84.6247C167.888 84.9927 167.977 85.678 167.609 86.1567C167.395 86.4354 167.071 86.582 166.744 86.582Z" fill="#2D2F33"/>
<path d="M144.131 113.088C144.101 113.088 144.072 113.087 144.041 113.083C142.464 112.923 139.183 112.589 138.897 109.285C138.685 106.836 140.555 105.225 142.363 103.667L142.461 103.581C143.583 102.616 144.804 100.312 144.261 94.8186C144.213 94.3372 144.564 93.9106 145.045 93.8626C145.521 93.8159 145.952 94.1666 146 94.6466C146.495 99.6559 145.688 103.108 143.603 104.904L143.504 104.991C141.893 106.377 140.503 107.575 140.637 109.135C140.772 110.692 142.053 111.124 144.219 111.344C144.699 111.393 145.048 111.823 144.999 112.303C144.953 112.752 144.575 113.088 144.131 113.088Z" fill="#CF4241"/>
<path d="M115.117 84.6916C114.667 86.9543 117.317 112.214 125.265 115.642C130.523 117.91 135.981 112.214 144.13 112.214C156.355 112.214 162.826 115.62 167.833 111.402C173.147 106.925 173.31 97.0969 171.734 84.0463C171.734 84.0463 173.485 84.7623 174.75 85.9969C176.015 87.2343 177.126 90.7903 177.126 90.7903C174.217 102.704 176.371 117.472 174.483 123.44C171.539 132.742 164.145 138.54 148.578 139.394C132.659 140.27 122.806 135.434 119.494 127.222C115.607 117.589 115.086 96.8916 112.155 93.5556C112.155 93.5556 112.15 88.9449 112.946 88.3263C113.741 87.7063 115.117 84.6916 115.117 84.6916Z" fill="#2D2F33"/>
<path d="M148.942 126.685C152.437 125.789 155.307 122.229 155.086 118.634C155.05 118.038 154.466 117.624 153.867 117.757C150.506 118.509 141.607 120.201 138.421 121.012C137.821 121.164 137.511 121.801 137.742 122.358C139.889 127.532 145.958 127.449 148.942 126.685Z" fill="#BD383D"/>
<path d="M138.421 121.012C141.606 120.201 150.506 118.509 153.866 117.757C154.466 117.624 155.05 118.039 155.086 118.635C155.106 118.952 155.116 119.389 155.05 119.841C155.045 119.88 138.276 123.42 138.276 123.42C138.026 123.039 137.934 122.821 137.742 122.359C137.51 121.801 137.82 121.164 138.421 121.012Z" fill="white"/>
<path d="M158.428 87.1371C152.507 87.5464 148.276 88.7078 147.849 92.6771C147.424 96.6491 151.451 101.616 156.155 103.55C160.859 105.484 167.412 103.865 169.611 99.4451C171.809 95.0264 170.143 89.3758 167.827 88.1571C165.511 86.9384 161.815 86.9038 158.428 87.1371Z" fill="#262628"/>
<path d="M130.799 88.6696C136.729 88.411 141.063 89.091 141.933 92.9883C142.801 96.8856 139.358 102.275 134.901 104.723C130.442 107.172 123.75 106.3 121.069 102.155C118.387 98.0096 119.41 92.207 121.575 90.7376C123.741 89.267 127.409 88.8176 130.799 88.6696Z" fill="#262628"/>
<path d="M169.918 92.9531C169.446 92.9531 169.019 92.6265 168.913 92.1465C168.79 91.5905 169.141 91.0398 169.695 90.9171L176.745 89.3531C177.301 89.2291 177.851 89.5811 177.974 90.1358C178.097 90.6918 177.747 91.2411 177.191 91.3651L170.142 92.9278C170.066 92.9451 169.991 92.9531 169.918 92.9531Z" fill="#262628"/>
<path d="M119.743 95.8477C119.676 95.8477 119.608 95.841 119.541 95.8277L111.663 94.265C111.104 94.153 110.741 93.6117 110.853 93.053C110.963 92.4943 111.505 92.133 112.064 92.2437L119.941 93.8077C120.5 93.9183 120.863 94.4597 120.752 95.0183C120.655 95.5077 120.224 95.8477 119.743 95.8477Z" fill="#262628"/>
<path d="M141.001 97.1172C140.599 97.1172 140.217 96.8799 140.051 96.4852C139.831 95.9612 140.077 95.3585 140.601 95.1372C143.456 93.9372 146.636 93.6679 149.324 94.3945C149.873 94.5439 150.197 95.1092 150.049 95.6585C149.9 96.2079 149.335 96.5332 148.785 96.3839C146.531 95.7732 143.839 96.0119 141.4 97.0359C141.269 97.0905 141.135 97.1172 141.001 97.1172Z" fill="#262628"/>
<path d="M148.409 96.0387C148.574 96.4454 148.769 96.848 148.993 97.248L157.795 87.204L157.777 87.188C157.167 87.236 156.577 87.2947 156.01 87.3654L148.409 96.0387Z" fill="white"/>
<path d="M161.472 87.0263L150.566 99.4703C150.836 99.781 151.12 100.084 151.417 100.377L163.074 87.073C162.549 87.0423 162.013 87.0276 161.472 87.0263Z" fill="white"/>
<path d="M119.623 98.3568C119.705 98.8475 119.825 99.3395 119.98 99.8262L129.704 88.7288C129.109 88.7675 128.515 88.8182 127.925 88.8822L119.623 98.3568Z" fill="white"/>
<path d="M133.312 88.6268L121.24 102.403C121.482 102.744 121.753 103.063 122.048 103.357L134.904 88.6868C134.394 88.6521 133.861 88.6348 133.312 88.6268Z" fill="white"/>
<path d="M146.77 176.26C134.078 176.26 124.85 166.346 122.226 156.325C122.044 155.63 122.459 154.921 123.152 154.74C123.846 154.557 124.555 154.973 124.738 155.668C127.159 164.914 135.775 174.056 147.54 173.649C158.015 173.282 166.636 163.194 167.594 150.185C167.646 149.47 168.271 148.94 168.984 148.986C169.699 149.038 170.236 149.661 170.183 150.376C169.687 157.121 167.235 163.448 163.278 168.192C159.122 173.176 153.564 176.036 147.631 176.244C147.343 176.254 147.055 176.26 146.77 176.26Z" fill="#FAB80A"/>
<path d="M272.75 218.741C272.595 219.055 272.451 219.381 272.333 219.739C269.654 227.769 263.747 231.765 254.405 233.285C245.063 234.808 209.839 225.143 183.757 211.131L181.89 217.992L204.282 227.849C221.657 235.523 244.621 245.008 252.467 245.753C265.442 246.985 273.831 240.705 274.655 229.227C274.89 225.963 274.234 222.477 272.75 218.741Z" fill="#EF3021"/>
<path d="M240.713 202.453C240.644 202.453 240.574 202.445 240.504 202.426L190.674 189.373C190.234 189.258 189.97 188.808 190.086 188.368C190.201 187.926 190.654 187.662 191.093 187.778L240.921 200.832C241.361 200.946 241.625 201.397 241.51 201.838C241.413 202.208 241.078 202.453 240.713 202.453Z" fill="#B61D23"/>
<path d="M182.544 215.029C181.01 214.28 177.004 213.241 174.2 213.767C169.956 214.559 168.268 214.751 162.644 214.463C156.684 214.16 145.906 213.616 143.784 211.96C141.658 210.304 143.552 205.312 149.806 205.291C153.914 205.279 154.65 205.183 157.208 205.131C155.314 204.712 147.473 202.013 143.533 201.096C139.593 200.176 133.388 197.977 130.634 196.976C127.881 195.976 127.489 190.336 132.617 191.172C137.374 191.948 146.444 193.907 149.358 194.283C149.478 194.299 149.53 194.124 149.417 194.08C145.532 192.528 133.145 188.469 130.213 186.953C128.636 186.139 127.533 184.813 128.085 182.419C128.43 180.925 129.732 179.78 132.509 180.308C137.796 181.312 149.813 185.908 151.941 186.824C151.974 186.837 151.998 186.791 151.968 186.772C147.681 184.013 138.501 178.596 136.277 177.027C134.294 175.628 134.301 173.348 135.446 172.112C136.404 171.079 138.12 170.76 140.52 171.876C145.249 174.076 154.833 179.532 156.748 180.628C156.786 180.651 156.822 180.597 156.789 180.568C153.876 178.097 149.12 174.859 146.858 172.423C145.249 170.688 145.204 168.932 146.365 167.84C147.25 167.007 148.812 166.833 151.037 168.047C156.65 171.105 162.136 174.06 166.422 176.119C169.478 177.587 179.16 180.915 183.972 187.059L190.489 189.483L182.544 215.029Z" fill="#F7967C"/>
<path d="M119.48 201.873C115.989 186.254 104.436 164.261 92.376 159.513C104.065 152.58 121.469 147.753 121.469 147.753C132.359 157.27 142.597 180.678 144.241 197.761C133.189 199.606 119.48 201.873 119.48 201.873Z" fill="white"/>
<path d="M95.0496 159.418C106.815 165.947 117.002 186.478 120.42 200.465C123.787 199.907 133.996 198.218 142.888 196.734C140.926 179.91 131.016 158.178 121.154 149.13C118.119 150.015 105.036 153.986 95.0496 159.418ZM118.528 203.283L118.272 202.143C114.667 186.011 102.959 165.009 91.9229 160.666L89.5723 159.739L91.7443 158.45C103.442 151.513 120.422 146.762 121.139 146.562L121.782 146.385L122.283 146.823C133.114 156.289 143.732 179.561 145.471 197.643L145.582 198.79L144.444 198.981C133.392 200.827 119.682 203.094 119.682 203.094L118.528 203.283Z" fill="#40BB6A"/>
<path d="M122.011 193.174C123.032 193.457 124.683 194.174 125.953 195.969L134.933 194.251C135.112 193.105 135.588 191.195 136.852 189.671C132.495 169.197 123.721 158.427 121.767 156.23C120.492 156.335 117.664 156.398 115.413 155.227C112.5 156.341 107.383 158.362 105.133 159.254C105.315 160.085 105.319 161.097 104.877 162.102C113.399 168.773 120.569 187.445 122.011 193.174ZM124.704 198.725L124.271 197.937C123.025 195.669 120.916 195.461 120.895 195.459L119.943 195.393L119.765 194.455C118.864 189.673 110.816 168.969 102.543 163.462L101.395 162.698L102.279 161.641C103.241 160.487 102.501 159.178 102.493 159.165L101.776 157.925L103.107 157.397C103.191 157.363 111.512 154.058 115.087 152.705L115.673 152.483L116.2 152.826C118.013 154.007 121.051 153.866 122.068 153.711L122.688 153.618L123.131 154.062C123.589 154.523 134.417 165.641 139.403 189.79L139.54 190.454L139.055 190.926C137.433 192.503 137.301 195.305 137.3 195.333L137.269 196.322L124.704 198.725Z" fill="#40BB6A"/>
<path d="M123.204 171.018C122.249 171.018 121.376 171.474 120.604 172.372C119.429 173.742 119.665 175.826 120.506 177.178C120.914 177.832 122.09 179.298 124.194 178.759C125.493 178.426 126.558 177.494 126.976 176.33C127.386 175.179 127.134 173.93 126.245 172.714C125.5 171.695 124.406 171.062 123.321 171.02C123.282 171.019 123.242 171.018 123.204 171.018ZM123.322 181.346C121.353 181.346 119.552 180.323 118.406 178.484C116.846 175.976 116.978 172.8 118.728 170.762C120.37 168.847 122.182 168.496 123.417 168.548C125.25 168.62 127.053 169.631 128.241 171.254C129.617 173.134 129.994 175.232 129.304 177.162C128.614 179.09 126.892 180.618 124.81 181.154C124.309 181.282 123.81 181.346 123.322 181.346Z" fill="#40BB6A"/>
<path d="M96.8781 227.367C96.4221 227.367 96.0527 226.999 96.0527 226.543V209.941C96.0527 209.486 96.4221 209.117 96.8781 209.117C97.3327 209.117 97.7021 209.486 97.7021 209.941V226.543C97.7021 226.999 97.3327 227.367 96.8781 227.367Z" fill="#B61D23"/>
<path d="M96.6642 261.936C96.3629 261.936 96.0735 261.77 95.9282 261.484C95.7229 261.077 95.8855 260.581 96.2922 260.376C102.52 257.222 107.303 254.642 108.823 253.816L107.872 248.032C107.799 247.582 108.103 247.158 108.552 247.084C109.003 247.009 109.426 247.314 109.499 247.764L110.639 254.7L110.13 254.981C110.075 255.012 104.622 258.008 97.0362 261.848C96.9162 261.908 96.7895 261.936 96.6642 261.936Z" fill="#B61D23"/>
<path d="M70.718 236.494C70.3767 236.494 70.058 236.281 69.9393 235.939C69.79 235.51 70.018 235.039 70.4473 234.891L104.829 222.957C105.258 222.807 105.729 223.035 105.878 223.466C106.026 223.895 105.799 224.365 105.369 224.515L70.9887 236.449C70.8993 236.479 70.8073 236.494 70.718 236.494Z" fill="#B61D23"/>
<path d="M158.006 203.93C157.716 203.93 157.436 203.778 157.286 203.508C157.063 203.111 157.204 202.608 157.602 202.386C161.188 200.376 166.255 199.495 166.47 199.458C166.92 199.383 167.343 199.683 167.42 200.132C167.498 200.58 167.196 201.007 166.747 201.083C166.698 201.092 161.742 201.956 158.408 203.824C158.28 203.896 158.143 203.93 158.006 203.93Z" fill="#CF4241"/>
<path d="M122.641 191.441C125.391 202.771 126.551 235.785 125.257 243.876C128.494 244.037 156.626 243.281 156.626 243.281C155.978 237.94 155.331 197.915 159.215 190.633C156.465 190.957 122.641 191.441 122.641 191.441Z" fill="white"/>
<path d="M126.654 242.663C126.718 242.664 126.783 242.664 126.85 242.664C132.606 242.664 150.321 242.209 155.289 242.08C154.802 234.264 154.318 202.256 157.375 191.975C150.609 192.249 130.021 192.569 124.175 192.656C126.654 204.887 127.599 233.2 126.654 242.663ZM126.842 245.135C126.086 245.135 125.521 245.128 125.194 245.111L123.818 245.043L124.035 243.681C125.253 236.079 124.193 203.077 121.438 191.735L121.073 190.228L122.622 190.205C134.299 190.037 156.945 189.655 159.07 189.405L161.418 189.129L160.306 191.215C156.689 197.996 157.209 237.82 157.853 243.132L158.017 244.48L156.658 244.517C155.623 244.544 133.614 245.135 126.842 245.135Z" fill="#40BB6A"/>
<path d="M130.642 234.44C130.99 234.747 131.515 235.215 132.043 235.7C132.749 236.351 133.262 236.831 133.607 237.231C135.367 237.214 141.222 236.856 146.639 236.472C147.315 235.428 148.855 233.334 150.871 232.363C151.45 222.198 151.322 205.19 151.291 201.914C150.362 201.074 148.358 199.064 147.714 196.875C144.861 196.492 140.237 196.582 133.938 197.143C133.022 199.302 131.063 200.911 130.043 201.639C130.195 204.132 130.633 212.315 130.003 215.499L130.642 234.44ZM131.745 238.024C131.743 238.028 131.742 238.034 131.741 238.038L131.745 238.024ZM131.839 238.975H131.842H131.839ZM133.695 239.707C132.349 239.707 132.218 239.538 131.942 239.183L131.537 238.66L131.542 238.642C130.957 238.04 129.699 236.894 128.614 235.951L128.206 235.598L127.522 215.278L127.557 215.126C128.143 212.471 127.737 204.096 127.53 201.094L127.478 200.338L128.129 199.948C128.157 199.931 131.183 198.08 131.842 195.66L132.067 194.834L132.919 194.754C140.613 194.035 145.869 193.976 148.99 194.578L149.91 194.752L149.99 195.687C150.119 197.223 152.094 199.39 153.309 200.394L153.75 200.759L153.758 201.332C153.761 201.539 153.994 222.139 153.293 233.302L153.238 234.166L152.407 234.411C150.662 234.923 148.949 237.371 148.437 238.272L148.109 238.847L147.449 238.895C147.414 238.898 143.841 239.151 140.29 239.371C136.75 239.591 134.807 239.707 133.695 239.707Z" fill="#40BB6A"/>
<path d="M105.099 223.735C107.43 223.112 113.004 213.383 117.884 210.425C120.204 209.019 121.526 208.504 123.81 207.468L125 215.871C130.882 214.647 144.674 210.853 149.971 210.391C152.858 210.139 157.376 209.767 158.622 211.375C160.53 213.841 159.419 216.416 157.04 217.089C163.376 216.455 163.194 220.181 163.074 221.191C162.842 223.147 160.728 223.817 158.644 224.339C160.567 225.432 160.974 227.647 160.542 228.755C159.586 231.205 155.668 231.743 154.063 232.249C155.932 232.995 156.483 234.305 156.578 235.384C156.747 237.311 154.427 238.575 150.195 239.697C143.59 241.449 139.852 242.807 131.106 244.368C125.188 245.425 108.998 247.445 108.998 247.445L105.099 223.735Z" fill="#F7967C"/>
<path d="M141.689 220.562C141.299 220.562 140.952 220.284 140.88 219.886C140.797 219.438 141.093 219.009 141.541 218.926C142.045 218.834 153.928 216.652 156.551 216.361C157.005 216.316 157.411 216.636 157.461 217.089C157.512 217.54 157.185 217.948 156.733 217.998C154.168 218.285 141.963 220.526 141.839 220.548C141.789 220.557 141.739 220.562 141.689 220.562Z" fill="#CF4241"/>
<path d="M142.826 227.912C142.45 227.912 142.11 227.655 142.023 227.272C141.922 226.828 142.199 226.385 142.643 226.284C143.403 226.111 157.675 223.661 158.282 223.556C158.731 223.479 159.157 223.78 159.234 224.228C159.31 224.677 159.01 225.104 158.561 225.18C154.437 225.888 143.605 227.756 143.01 227.891C142.949 227.905 142.887 227.912 142.826 227.912Z" fill="#CF4241"/>
<path d="M142.149 235.254C141.76 235.254 141.413 234.977 141.34 234.579C141.257 234.131 141.553 233.702 142 233.618C142.112 233.599 153.108 231.562 154.302 231.333C154.75 231.246 155.182 231.539 155.269 231.986C155.354 232.433 155.062 232.865 154.616 232.95C153.413 233.182 142.41 235.221 142.3 235.239C142.249 235.25 142.2 235.254 142.149 235.254Z" fill="#CF4241"/>
<path d="M185.186 219.739C201.241 264.46 193.615 290.891 193.615 290.891L205.858 290.12L204.282 227.849L185.186 219.739Z" fill="#EF3021"/>
<path d="M203.46 228.861C203.348 228.861 203.235 228.839 203.127 228.791C192.339 224.015 181.646 218.993 181.54 218.943L180.879 218.632L181.966 215.333C182.108 214.9 182.574 214.667 183.007 214.808C183.439 214.949 183.674 215.416 183.532 215.848L182.902 217.76C185.396 218.927 194.56 223.195 203.794 227.284C204.21 227.468 204.399 227.955 204.214 228.372C204.078 228.679 203.776 228.861 203.46 228.861Z" fill="#B61D23"/>
<path d="M328.835 233.087C320.444 233.087 313.616 239.915 313.616 248.306C313.616 256.698 320.444 263.525 328.835 263.525C337.227 263.525 344.053 256.698 344.053 248.306C344.053 239.915 337.227 233.087 328.835 233.087ZM328.835 265.998C319.08 265.998 311.143 258.061 311.143 248.306C311.143 238.551 319.08 230.615 328.835 230.615C338.589 230.615 346.527 238.551 346.527 248.306C346.527 258.061 338.589 265.998 328.835 265.998Z" fill="#56B38E"/>
<path d="M75.39 2.47127C64.2233 2.47127 55.138 11.5553 55.138 22.7219C55.138 33.8899 64.2233 42.9753 75.39 42.9753C86.5567 42.9753 95.642 33.8899 95.642 22.7219C95.642 11.5553 86.5567 2.47127 75.39 2.47127ZM75.39 45.4473C62.8593 45.4473 52.666 35.2539 52.666 22.7219C52.666 10.1926 62.8593 -0.000733776 75.39 -0.000733776C87.9193 -0.000733776 98.114 10.1926 98.114 22.7219C98.114 35.2539 87.9193 45.4473 75.39 45.4473Z" fill="white"/>
<path d="M58.0678 153.867C55.4371 153.867 53.6998 152.707 52.1651 151.682C50.8051 150.775 49.6305 149.991 47.8891 149.991H47.8878C45.7318 149.991 44.4545 150.839 42.9745 151.821C41.5305 152.781 39.8918 153.867 37.4865 153.867C34.2865 153.867 32.3945 152.578 30.8745 151.543C29.6038 150.677 28.5985 149.993 26.9665 149.993H26.9545C25.0958 149.997 23.9825 150.779 22.6931 151.685C21.2465 152.702 19.6065 153.854 16.9385 153.867H16.9305C16.1371 153.867 15.4931 153.227 15.4878 152.433C15.4851 151.635 16.1278 150.986 16.9238 150.982C18.6878 150.974 19.7238 150.246 21.0345 149.326C22.5091 148.287 24.1811 147.114 26.9478 147.107H26.9665C29.4891 147.107 31.0878 148.197 32.4998 149.159C33.9345 150.137 35.1758 150.982 37.4865 150.982C39.0225 150.982 40.0625 150.291 41.3785 149.417C43.0118 148.335 44.8611 147.106 47.8865 147.106H47.8891C50.5051 147.106 52.2371 148.262 53.7665 149.283C55.1318 150.194 56.3118 150.982 58.0691 150.982C58.0811 150.982 58.0945 150.983 58.1051 150.982C58.8998 150.982 59.5438 151.623 59.5478 152.417C59.5518 153.214 58.9091 153.863 58.1131 153.867H58.0678Z" fill="#FAB80A"/>
<path d="M205.896 124.473C205.066 124.473 204.391 123.795 204.391 122.963C204.391 122.133 205.066 121.455 205.896 121.455C206.728 121.455 207.403 122.133 207.403 122.963C207.403 123.795 206.728 124.473 205.896 124.473Z" fill="#5B57B0"/>
<path d="M222.057 124.473C221.227 124.473 220.551 123.795 220.551 122.963C220.551 122.133 221.227 121.455 222.057 121.455C222.888 121.455 223.564 122.133 223.564 122.963C223.564 123.795 222.888 124.473 222.057 124.473Z" fill="#5B57B0"/>
<path d="M238.218 124.473C237.386 124.473 236.711 123.795 236.711 122.963C236.711 122.133 237.386 121.455 238.218 121.455C239.049 121.455 239.725 122.133 239.725 122.963C239.725 123.795 239.049 124.473 238.218 124.473Z" fill="#5B57B0"/>
<path d="M286.289 71.0913C284.849 71.0913 283.509 71.3046 282.355 71.7086C278.519 73.0566 277.079 76.158 278.403 80.2206C278.93 81.8353 280.043 82.8313 281.714 83.182C284.826 83.8366 288.989 82.0713 291.839 78.8886C292.857 77.7513 294.129 75.9526 294.845 73.5193C292.062 71.85 289.003 71.0913 286.289 71.0913ZM298.487 96.3793C290.747 96.3793 283.701 98.7846 281.485 101.737C280.661 102.835 280.545 103.942 281.129 105.119C282.495 107.874 286.659 106.423 288.386 105.674C292.417 103.921 296.613 100.378 299.394 96.3913C299.091 96.3833 298.789 96.3793 298.487 96.3793ZM284.141 108.779C281.89 108.779 280.183 107.85 279.283 106.034C278.346 104.146 278.538 102.231 279.837 100.501C282.883 96.4393 291.927 93.9313 300.649 94.3886C302.971 90.218 303.511 86.0246 302.154 82.4166C300.895 79.0686 298.907 76.542 296.607 74.7326C295.931 76.746 294.849 78.6166 293.374 80.2633C290.005 84.0273 285.149 86.0113 281.29 85.1993C278.915 84.6993 277.194 83.158 276.445 80.8593C274.774 75.734 276.777 71.4833 281.673 69.7646C285.734 68.3393 290.843 68.938 295.286 71.4286C295.551 69.3873 295.398 67.0046 294.505 64.2873C294.326 63.7473 294.621 63.166 295.161 62.9873C295.701 62.81 296.283 63.1033 296.461 63.6433C297.474 66.718 297.693 69.7753 297.157 72.6193C300.107 74.742 302.611 77.782 304.083 81.69C305.693 85.9673 304.933 90.4793 302.865 94.57C303.598 94.654 304.325 94.758 305.042 94.886C312.97 96.302 318.281 100.243 319.993 105.983C320.155 106.529 319.845 107.103 319.299 107.266C318.754 107.43 318.181 107.119 318.018 106.573C316.022 99.8873 308.805 97.6513 304.679 96.914C303.71 96.7406 302.734 96.6126 301.761 96.5246C298.67 101.461 293.79 105.57 289.207 107.563C287.334 108.377 285.621 108.779 284.141 108.779" fill="#D4D3D2"/>
<path d="M23.1856 97.1091C23.5496 100.509 24.6949 111.512 25.1509 119.861C27.6269 119.446 30.3096 118.817 33.1469 117.985C49.2042 113.276 68.1856 102.636 73.7829 91.2944C73.1949 89.2117 70.3682 79.8651 64.6309 70.5811C56.3789 80.9237 37.8069 92.8531 23.1856 97.1091ZM22.8136 122.705L22.7509 121.352C22.2869 111.425 20.6309 96.4877 20.6149 96.3384L20.4976 95.2851L21.5216 95.0077C36.5096 90.9651 56.2256 78.2024 63.7122 67.6971L64.7629 66.2237L65.7536 67.7397C73.1362 79.0317 76.1696 90.6157 76.2949 91.1024L76.4056 91.5304L76.2189 91.9317C70.3042 104.658 50.1069 115.588 33.8429 120.358C30.3722 121.376 27.1136 122.102 24.1576 122.518L22.8136 122.705Z" fill="#40BB6A"/>
<path d="M29.7429 111.54C30.6856 111.69 32.0629 112.076 33.3256 113.074C50.8989 108.676 64.3816 96.2951 66.9082 93.8551C66.7962 92.7511 66.7522 90.4564 67.7256 87.4818C67.4162 85.6458 65.6002 82.1591 64.4642 80.1551C63.5962 80.4524 62.3176 80.7231 60.9136 80.4671C53.1402 87.6524 37.2522 96.9138 31.7629 98.6164C31.3336 99.4818 30.3642 101.14 28.6562 102.618L29.7429 111.54ZM32.6229 115.787L32.1362 115.315C30.6682 113.895 28.6896 113.92 28.6722 113.92L27.5536 113.946L27.4096 112.835L26.0322 101.538L26.5936 101.108C28.8189 99.4044 29.7149 97.1564 29.7229 97.1324L29.9602 96.5271L30.5949 96.3751C34.8082 95.3884 51.8816 85.6951 59.7002 78.2151L60.2269 77.7111L60.9229 77.9284C62.6669 78.4738 64.3376 77.5311 64.3536 77.5218L65.4109 76.8991L66.0429 77.9511C66.4389 78.6124 69.9256 84.4978 70.2189 87.4818L70.2456 87.7498L70.1589 88.0058C68.9269 91.5871 69.4216 94.0084 69.4269 94.0324L69.5656 94.6791L69.1056 95.1618C68.4882 95.7951 53.7442 110.754 33.2829 115.63L32.6229 115.787Z" fill="#40BB6A"/>
<path d="M45.3016 100.114C45.7176 100.989 46.2669 101.522 46.9349 101.694C47.8989 101.942 49.2429 101.496 50.7176 100.437C51.8016 99.6584 52.3603 98.769 52.3789 97.7944C52.4029 96.5037 51.5203 95.3517 50.6869 94.7024C50.0323 94.1944 47.8216 94.3757 46.2229 95.6584C45.2203 96.465 44.2456 97.8904 45.3016 100.114ZM47.4896 104.234C47.0843 104.234 46.6936 104.186 46.3163 104.088C45.3469 103.838 43.9949 103.129 43.0669 101.174C41.7443 98.385 42.3443 95.6024 44.6749 93.7304C47.0176 91.849 50.4669 91.3997 52.2043 92.7504C53.8963 94.0664 54.8856 95.969 54.8509 97.841C54.8269 99.077 54.3416 100.878 52.1603 102.445C50.5136 103.628 48.9216 104.234 47.4896 104.234Z" fill="#40BB6A"/>
<path d="M28.6257 173.208C34.0631 189.807 48.9271 212.483 62.5284 216.369C50.5604 225.132 36.9364 230.496 36.9364 230.496C20.4297 223.863 5.01773 198.963 1.43506 180.579C13.2457 177.411 28.6257 173.208 28.6257 173.208Z" fill="white"/>
<path d="M2.88133 181.47C6.744 199.165 21.3347 222.553 36.94 229.16C39.2493 228.206 49.908 223.648 59.8787 216.737C46.3453 211.014 33.0093 189.6 27.8267 174.706C24.2053 175.694 12.528 178.878 2.88133 181.47ZM36.932 231.826L36.476 231.642C28.6067 228.481 20.3827 221.022 13.3173 210.64C6.83067 201.109 2.05733 190.237 0.221333 180.816L0 179.682L1.11467 179.385C12.7867 176.253 28.1453 172.056 28.3 172.014L29.4347 171.705L29.8 172.822C32.5547 181.23 37.6787 190.948 43.508 198.82C50.0707 207.677 56.9453 213.488 62.868 215.18L65.2973 215.874L63.2587 217.366C51.2987 226.122 37.5267 231.592 37.3893 231.645L36.932 231.826Z" fill="#40BB6A"/>
<path d="M36.7212 221.468C38.0039 221.468 39.4492 221.633 40.7572 222.17C43.4799 220.818 47.0839 218.962 48.8452 218.05C48.5599 217.224 48.3705 216.07 48.8079 214.825C38.8132 208.52 28.9985 188.824 26.8772 182.824C25.7519 182.637 23.8439 182.046 22.2559 180.176L12.4332 183.106C12.4079 184.36 12.1625 186.513 10.9252 188.32C17.9852 210.541 31.1559 220.148 33.5919 221.77C34.2372 221.645 35.3919 221.468 36.7212 221.468ZM40.7612 224.928L40.2039 224.637C38.0785 223.528 34.7572 224.005 33.6559 224.284L33.1625 224.409L32.7239 224.149C32.0599 223.757 16.3532 214.228 8.37321 188.446L8.17188 187.798L8.61054 187.281C10.2172 185.386 9.94388 182.353 9.94121 182.324L9.83188 181.301L23.2332 177.305L23.7425 178.05C25.3625 180.426 27.6772 180.429 27.7785 180.436L28.7132 180.429L28.9879 181.326C30.4732 186.437 41.4225 208.125 51.0145 213.25L52.2305 213.9L51.4532 215.04C50.4852 216.454 51.4719 217.865 51.4812 217.88L52.3119 219.038L51.0465 219.696C50.9879 219.726 45.0652 222.804 41.3239 224.65L40.7612 224.928Z" fill="#40BB6A"/>
<path d="M26.2927 197.31H26.2954H26.2927ZM27.8941 198.254C27.5274 198.254 27.1341 198.321 26.7141 198.472C25.3554 198.965 24.3634 199.981 24.0581 201.19C23.7367 202.464 24.1834 203.829 25.3501 205.137C26.1767 206.062 27.2967 206.594 28.4261 206.594H28.4274C29.5674 206.593 30.6314 206.073 31.5061 205.092C32.4207 204.065 32.2314 201.926 31.0754 200.224C30.6301 199.565 29.5354 198.254 27.8941 198.254V198.254ZM28.4261 209.066C26.5941 209.066 24.7994 208.234 23.5061 206.782C21.7927 204.862 21.1367 202.661 21.6607 200.585C22.1661 198.58 23.7394 196.921 25.8714 196.148C28.5594 195.173 31.3381 196.201 33.1234 198.836C34.6834 201.137 35.2647 204.59 33.3527 206.736C32.0154 208.238 30.2661 209.065 28.4287 209.066H28.4261Z" fill="#40BB6A"/>
<path d="M215.798 239.571C229.691 250.157 240.867 267.931 236.779 281.473C250.625 276.147 262.503 267.59 262.503 267.59C264.246 258.507 260.677 247.553 254.029 237.969C247.889 229.115 239.039 221.457 231.267 216.933C224.395 227.047 215.798 239.571 215.798 239.571Z" fill="white"/>
<path d="M217.476 239.311C230.238 249.415 240.943 265.817 238.532 279.441C249.739 274.791 259.323 268.3 261.376 266.872C262.702 258.933 259.667 248.685 252.999 238.653C247.556 230.461 239.764 223.277 231.496 218.795C225.94 226.968 219.52 236.332 217.476 239.311ZM234.866 283.533L235.595 281.116C237.888 273.52 234.875 265.441 231.943 260.001C228.068 252.811 222.068 245.904 215.048 240.556L214.112 239.841L214.779 238.872C214.863 238.749 223.282 226.487 230.074 216.491L230.688 215.585L231.662 216.085C240.65 220.708 249.178 228.435 255.059 237.284C262.218 248.059 265.374 259.189 263.718 267.824L263.624 268.307L263.226 268.595C263.106 268.68 251.058 277.305 237.223 282.627L234.866 283.533Z" fill="#40BB6A"/>
<path d="M242.896 269.096C244.184 269.402 245.055 270.186 245.595 270.875C247.314 269.886 250.824 267.859 253.435 266.3C253.948 263.506 256.024 261.06 256.936 260.096C256.81 258.76 256.271 254.891 254.068 249.834C251.584 244.128 246.419 235.718 235.886 227.816C233.774 228.391 231.659 227.916 230.467 227.527L224.472 235.844C225.715 237.955 225.65 239.948 225.456 241.071C230.247 244.84 242.874 257.79 242.896 269.096ZM244.551 274.324L244.024 272.999C243.96 272.847 243.322 271.436 241.728 271.436C241.703 271.436 241.678 271.436 241.651 271.438L240.274 271.476L240.384 270.102C241.271 259.17 227.206 245.32 223.348 242.579L222.57 242.027L222.907 241.134C222.936 241.052 223.688 238.862 221.976 236.55L221.439 235.823L229.616 224.479L230.546 224.916C230.57 224.928 233.335 226.188 235.666 225.29L236.298 225.046L236.843 225.448C248.222 233.828 253.756 242.871 256.394 248.98C259.28 255.666 259.44 260.339 259.446 260.534L259.462 261.091L259.055 261.471C259.026 261.498 256.07 264.31 255.81 267.17L255.752 267.794L255.215 268.118C251.638 270.267 245.846 273.582 245.788 273.616L244.551 274.324Z" fill="#40BB6A"/>
<path d="M239.042 244.505H239.045H239.042ZM242.815 244.121C241.783 244.121 240.745 244.564 239.909 245.387C238.117 247.149 238.878 249.236 239.289 250.049C240.15 251.76 241.862 252.883 243.266 252.663C244.565 252.459 245.578 251.844 246.195 250.887C246.806 249.937 246.966 248.707 246.634 247.511C246.151 245.773 245.121 244.612 243.729 244.241C243.429 244.16 243.122 244.121 242.815 244.121ZM242.897 255.164C240.623 255.164 238.311 253.607 237.079 251.163C235.737 248.499 236.157 245.609 238.174 243.624C239.89 241.936 242.205 241.273 244.367 241.852C246.606 242.451 248.301 244.272 249.015 246.849C249.537 248.724 249.266 250.684 248.274 252.225C247.279 253.771 245.637 254.793 243.65 255.105C243.401 255.144 243.149 255.164 242.897 255.164Z" fill="#40BB6A"/>
<path d="M265.954 148.601C275.451 164.532 295.17 181.827 309.09 186.399C311.638 184.225 323.091 174.248 330.648 164.24C315.994 163.152 296.499 147.144 286.818 134.703C283.791 136.717 274.192 143.104 265.954 148.601ZM309.646 189.16L309.008 188.965C294.011 184.405 273.046 166.027 263.226 148.833L262.654 147.832L263.612 147.191C273.668 140.48 286.287 132.087 286.414 132.003L287.387 131.355L288.087 132.291C293.392 139.372 301.363 146.933 309.408 152.519C318.464 158.804 326.842 162.108 332.992 161.807L335.515 161.685L334.064 163.753C325.54 175.887 310.783 188.215 310.158 188.733L309.646 189.16Z" fill="#40BB6A"/>
<path d="M275.153 152.983C288.734 171.522 302.44 178.338 305.28 179.609C306.472 178.943 309.305 177.569 312.09 177.749C314.518 175.309 318.821 170.883 320.629 169.022C320.094 168.331 319.546 167.299 319.561 165.981C308.07 163.215 292.458 147.706 288.525 142.705C287.401 142.89 285.402 142.941 283.297 141.677L275.005 147.498C275.345 148.701 275.757 150.863 275.153 152.983ZM305.514 182.367L304.929 182.145C304.266 181.891 288.54 175.693 272.776 153.921L272.378 153.371L272.628 152.741C273.552 150.403 272.41 147.513 272.4 147.485L272.021 146.57L283.308 138.647L284.026 139.187C286.366 140.951 288.581 140.165 288.604 140.157L289.498 139.826L290.045 140.609C293.092 144.971 310.416 162.005 321.146 163.783L322.506 164.009L322.136 165.337C321.69 166.925 322.938 167.917 323.082 168.023L324.208 168.866L323.24 169.882C323.172 169.953 316.372 176.969 313.421 179.915L312.977 180.359L312.357 180.263C309.52 179.822 306.074 182.007 306.041 182.029L305.514 182.367Z" fill="#40BB6A"/>
<path d="M292.693 158.06C291.522 158.997 290.862 160.437 290.971 161.82C291.081 163.189 291.913 164.352 293.375 165.181C294.603 165.877 296.011 166.021 297.142 165.562C298.174 165.145 298.922 164.234 299.306 162.926C299.878 160.985 298.681 158.966 297.205 157.976C296.485 157.492 294.603 156.532 292.693 158.06ZM295.737 168.297C294.526 168.297 293.281 167.97 292.155 167.332C289.977 166.096 288.681 164.208 288.506 162.017C288.333 159.828 289.345 157.572 291.147 156.129C293.327 154.385 296.175 154.306 298.582 155.921C301.219 157.692 302.493 160.858 301.678 163.625C300.914 166.224 299.294 167.36 298.07 167.856C297.338 168.15 296.545 168.297 295.737 168.297Z" fill="#40BB6A"/>
<path d="M242.896 71.1855C246.83 58.1562 260.638 27.9602 264.279 23.0655C247.598 19.8242 236.058 14.3056 236.058 14.3056C228.002 26.3202 217.802 60.0642 217.147 63.8535C221.162 65.0962 242.896 71.1855 242.896 71.1855Z" fill="white"/>
<path d="M218.604 62.9998C223.569 64.4718 237.893 68.4958 242.073 69.6692C246.053 57.2585 257.513 31.7932 262.247 23.9172C249.268 21.2105 239.549 17.2025 236.517 15.8692C229.133 27.6598 220.244 56.4412 218.604 62.9998ZM243.729 72.7012L242.563 72.3745C241.675 72.1265 220.767 66.2665 216.78 65.0332L215.743 64.7118L215.928 63.6412C216.553 60.0278 226.652 26.1118 235.031 13.6158L235.627 12.7278L236.591 13.1892C236.705 13.2438 248.2 18.6812 264.515 21.8518L266.443 22.2252L265.271 23.8025C261.873 28.3692 248.075 58.3105 244.08 71.5412L243.729 72.7012Z" fill="#40BB6A"/>
<path d="M227.076 61.6485C228.535 62.0632 230.015 62.4565 231.454 62.8405C232.818 63.2019 234.22 63.5752 235.6 63.9645C237.062 62.3779 238.758 61.3085 240.958 60.5805C244.322 51.8259 249.099 40.8899 253.582 31.6779C251.902 29.7232 251.819 27.1952 251.979 25.6245C248.663 24.6219 245.051 23.4885 242.03 22.3045C240.386 23.6779 238.812 24.2939 236.504 24.4712C231.23 35.8392 226.447 50.7779 224.798 56.1232C226.146 57.7379 226.848 60.0299 227.076 61.6485ZM236.459 66.7832L235.675 66.5579C234.078 66.0965 232.42 65.6565 230.818 65.2299C229.1 64.7725 227.323 64.2992 225.578 63.7912L224.712 63.5405L224.687 62.6392C224.647 61.2192 223.884 58.5899 222.559 57.3445L221.998 56.8192L222.223 56.0832C224.087 49.9859 229.022 34.5339 234.58 22.7499L234.902 22.0685L235.655 22.0419C238.36 21.9472 239.515 21.2965 240.938 19.9699L241.516 19.4312L242.248 19.7299C245.448 21.0352 249.654 22.3445 253.72 23.5659L254.815 23.8952L254.574 25.0112C254.44 25.6259 253.879 28.7752 255.883 30.4912L256.61 31.1152L256.188 31.9739C251.531 41.4792 246.498 52.9939 243.052 62.0245L242.834 62.5992L242.243 62.7712C239.94 63.4419 238.366 64.4539 236.975 66.1525L236.459 66.7832Z" fill="#40BB6A"/>
<path d="M244.05 42.4986H244.052H244.05ZM239.188 37.1066C237.432 37.1066 235.8 38.3599 235.315 40.2293C235.035 41.3026 235.172 42.4119 235.7 43.3546C236.218 44.2786 237.051 44.9306 238.05 45.1906C240.128 45.7319 242.283 44.3826 242.852 42.1879C243.423 39.9919 242.196 37.7653 240.118 37.2266C239.808 37.1453 239.496 37.1066 239.188 37.1066V37.1066ZM238.978 47.7812C238.464 47.7812 237.944 47.7173 237.427 47.5826C235.772 47.1533 234.391 46.0799 233.542 44.5613C232.702 43.0599 232.482 41.3013 232.922 39.6066C233.834 36.0919 237.34 33.9493 240.74 34.8333C244.138 35.7159 246.159 39.2946 245.246 42.8093C244.471 45.7893 241.832 47.7812 238.978 47.7812" fill="#40BB6A"/>
<path d="M85.7152 19.6075C86.1392 16.7248 83.9579 15.1755 80.9432 14.1355L81.9099 10.2235L79.5246 9.63016L78.5819 13.4342C77.9619 13.2808 77.3259 13.1355 76.6792 12.9875L77.6392 9.15283L75.2366 8.55949L74.2766 12.4688C73.7579 12.3555 73.2486 12.2368 72.7566 12.1142L72.7646 12.1008L69.4699 11.2862L68.8499 13.8248C68.8499 13.8248 70.6166 14.2328 70.5819 14.2528C71.5419 14.4955 71.7112 15.1328 71.6859 15.6408L70.5819 20.1008C70.6326 20.1182 70.7259 20.1382 70.8206 20.1768C70.7432 20.1595 70.6592 20.1355 70.5566 20.1182L69.0112 26.3582C68.8926 26.6515 68.5779 27.0888 67.9246 26.9235C67.9406 26.9582 66.1912 26.4955 66.1912 26.4955L65.0112 29.2208L68.1112 29.9942C68.6886 30.1382 69.2312 30.2875 69.8006 30.4315L68.8152 34.3848L71.1939 34.9782L72.1619 31.0648C72.8166 31.2422 73.4526 31.4035 74.0726 31.5568L73.0872 35.4542L75.4659 36.0488L76.4672 32.0995C80.5259 32.8635 83.5672 32.5582 84.8659 28.8808C85.8939 25.9248 84.8152 24.2195 82.6846 23.1062C84.2379 22.7488 85.3926 21.7222 85.7152 19.6075ZM80.2712 27.2435C79.5246 30.1968 74.5646 28.6008 72.9432 28.2022L74.2499 22.9542C75.8726 23.3582 81.0446 24.1595 80.2712 27.2435ZM81.0019 19.5702C80.3392 22.2568 76.2046 20.8902 74.8446 20.5595L76.0432 15.8022C77.3846 16.1355 81.6979 16.7622 81.0019 19.5702" fill="white"/>
<path d="M330.295 248.904V248.899C330.195 248.907 329.698 248.936 328.569 248.936C327.678 248.936 327.037 248.909 326.826 248.899V248.904C323.379 248.749 320.795 248.149 320.795 247.432C320.795 246.712 323.379 246.112 326.826 245.957V248.307C327.037 248.319 327.701 248.356 328.591 248.356C329.658 248.356 330.195 248.315 330.295 248.307V245.957C333.737 246.112 336.303 246.712 336.303 247.431C336.303 248.147 333.737 248.749 330.295 248.899V248.904ZM330.295 245.713V243.615H335.102V240.415H322.018V243.615H326.821V245.711C322.921 245.893 319.983 246.665 319.983 247.593C319.983 248.516 322.926 249.291 326.821 249.475V256.201H330.295V249.475C334.185 249.291 337.122 248.516 337.122 247.593C337.122 246.668 334.185 245.897 330.295 245.713Z" fill="white"/>
<path d="M18.2304 242.22C18.2304 242.844 18.0451 243.341 17.6744 243.712C17.2544 244.153 16.7064 244.373 16.0331 244.373C15.3878 244.373 14.8398 244.149 14.3878 243.702C13.9358 243.254 13.7104 242.7 13.7104 242.038C13.7104 241.376 13.9358 240.821 14.3878 240.374C14.8398 239.926 15.3878 239.702 16.0331 239.702C16.3531 239.702 16.6598 239.765 16.9504 239.89C17.2411 240.016 17.4758 240.182 17.6491 240.39L17.2571 240.784C16.9611 240.429 16.5531 240.252 16.0331 240.252C15.5624 240.252 15.1558 240.417 14.8118 240.749C14.4691 241.081 14.2971 241.51 14.2971 242.038C14.2971 242.568 14.4691 242.997 14.8118 243.328C15.1558 243.658 15.5624 243.824 16.0331 243.824C16.5318 243.824 16.9491 243.657 17.2811 243.325C17.4971 243.108 17.6224 242.806 17.6558 242.418H16.0331V241.882H18.1998C18.2198 242 18.2304 242.112 18.2304 242.22Z" fill="white"/>
<path d="M18.2304 242.22C18.2304 242.844 18.0451 243.341 17.6744 243.712C17.2544 244.153 16.7064 244.373 16.0331 244.373C15.3878 244.373 14.8398 244.149 14.3878 243.702C13.9358 243.254 13.7104 242.7 13.7104 242.038C13.7104 241.376 13.9358 240.821 14.3878 240.374C14.8398 239.926 15.3878 239.702 16.0331 239.702C16.3531 239.702 16.6598 239.765 16.9504 239.89C17.2411 240.016 17.4758 240.182 17.6491 240.39L17.2571 240.784C16.9611 240.429 16.5531 240.252 16.0331 240.252C15.5624 240.252 15.1558 240.417 14.8118 240.749C14.4691 241.081 14.2971 241.51 14.2971 242.038C14.2971 242.568 14.4691 242.997 14.8118 243.328C15.1558 243.658 15.5624 243.824 16.0331 243.824C16.5318 243.824 16.9491 243.657 17.2811 243.325C17.4971 243.108 17.6224 242.806 17.6558 242.418H16.0331V241.882H18.1998C18.2198 242 18.2304 242.112 18.2304 242.22Z" stroke="white" stroke-width="0.266667" stroke-miterlimit="10"/>
<path d="M21.664 240.353H19.6294V241.771H21.464V242.308H19.6294V243.724H21.664V244.273H19.0547V239.804H21.664V240.353Z" fill="white"/>
<path d="M21.664 240.353H19.6294V241.771H21.464V242.308H19.6294V243.724H21.664V244.273H19.0547V239.804H21.664V240.353Z" stroke="white" stroke-width="0.266667" stroke-miterlimit="10"/>
<path d="M24.0867 244.273H23.512V240.353H22.2627V239.803H25.336V240.353H24.0867V244.273Z" fill="white"/>
<path d="M24.0867 244.273H23.512V240.353H22.2627V239.803H25.336V240.353H24.0867V244.273Z" stroke="white" stroke-width="0.266667" stroke-miterlimit="10"/>
<path d="M27.5576 239.805H28.1323V244.275H27.5576V239.805Z" fill="white" stroke="white" stroke-width="0.266667" stroke-miterlimit="10"/>
<path d="M30.6796 244.273H30.1049V240.353H28.8569V239.803H31.9289V240.353H30.6796V244.273Z" fill="white"/>
<path d="M30.6796 244.273H30.1049V240.353H28.8569V239.803H31.9289V240.353H30.6796V244.273Z" stroke="white" stroke-width="0.266667" stroke-miterlimit="10"/>
<path d="M34.8898 243.323C35.2205 243.658 35.6258 243.826 36.1045 243.826C36.5831 243.826 36.9885 243.658 37.3178 243.323C37.6498 242.988 37.8151 242.56 37.8151 242.04C37.8151 241.519 37.6498 241.092 37.3178 240.756C36.9885 240.422 36.5831 240.254 36.1045 240.254C35.6258 240.254 35.2205 240.422 34.8898 240.756C34.5591 241.092 34.3938 241.519 34.3938 242.04C34.3938 242.56 34.5591 242.988 34.8898 243.323ZM37.7431 243.698C37.3045 244.15 36.7578 244.375 36.1045 244.375C35.4511 244.375 34.9045 244.15 34.4658 243.698C34.0258 243.246 33.8071 242.694 33.8071 242.04C33.8071 241.387 34.0258 240.835 34.4658 240.383C34.9045 239.931 35.4511 239.704 36.1045 239.704C36.7538 239.704 37.2991 239.932 37.7405 240.386C38.1818 240.839 38.4018 241.391 38.4018 242.04C38.4018 242.694 38.1818 243.246 37.7431 243.698" fill="white"/>
<path d="M34.8898 243.323C35.2205 243.658 35.6258 243.826 36.1045 243.826C36.5831 243.826 36.9885 243.658 37.3178 243.323C37.6498 242.988 37.8151 242.56 37.8151 242.04C37.8151 241.519 37.6498 241.092 37.3178 240.756C36.9885 240.422 36.5831 240.254 36.1045 240.254C35.6258 240.254 35.2205 240.422 34.8898 240.756C34.5591 241.092 34.3938 241.519 34.3938 242.04C34.3938 242.56 34.5591 242.988 34.8898 243.323ZM37.7431 243.698C37.3045 244.15 36.7578 244.375 36.1045 244.375C35.4511 244.375 34.9045 244.15 34.4658 243.698C34.0258 243.246 33.8071 242.694 33.8071 242.04C33.8071 241.387 34.0258 240.835 34.4658 240.383C34.9045 239.931 35.4511 239.704 36.1045 239.704C36.7538 239.704 37.2991 239.932 37.7405 240.386C38.1818 240.839 38.4018 241.391 38.4018 242.04C38.4018 242.694 38.1818 243.246 37.7431 243.698V243.698Z" stroke="white" stroke-width="0.266667" stroke-miterlimit="10"/>
<path d="M39.2085 244.273V239.803H39.9072L42.0805 243.281H42.1045L42.0805 242.419V239.803H42.6552V244.273H42.0552L39.7818 240.628H39.7578L39.7818 241.489V244.273H39.2085Z" fill="white"/>
<path d="M39.2085 244.273V239.803H39.9072L42.0805 243.281H42.1045L42.0805 242.419V239.803H42.6552V244.273H42.0552L39.7818 240.628H39.7578L39.7818 241.489V244.273H39.2085Z" stroke="white" stroke-width="0.266667" stroke-miterlimit="10"/>
</svg>
