<svg width="389" height="303" viewBox="0 0 389 303" fill="none" xmlns="http://www.w3.org/2000/svg">
<g filter="url(#filter0_d)">
<path d="M134.497 246.609C136.773 239.347 139.52 232.151 134.688 225.208C129.855 218.267 123.497 213.035 122.389 211.257C121.185 223.979 131.565 243.387 134.497 246.609Z" fill="#78CEA8"/>
<path d="M133.78 245.664C133.07 240.797 114.829 227.056 104.235 226.755C93.6385 226.453 88.1212 230.949 87.1318 231.545C96.7865 241.353 107.116 243.956 115.603 245.565C124.091 247.173 133.78 245.664 133.78 245.664Z" fill="#78CEA8"/>
<path d="M147.978 226.563C147.642 227.71 147.176 229.053 146.671 230.513C145.552 233.739 144.16 237.755 143.628 241.309C142.974 245.686 144.73 251.841 146.428 257.793C147.078 260.073 147.694 262.231 148.18 264.295C149.839 261.098 153.572 253.823 155.752 249.025C158.386 243.226 153.771 235.145 147.978 226.563ZM148.168 267.027C147.767 267.027 147.398 266.807 147.208 266.453L146.486 265.107L146.458 264.989C145.972 262.885 145.338 260.655 144.664 258.297C142.912 252.155 141.1 245.809 141.814 241.037C142.371 237.314 143.794 233.21 144.938 229.911C145.774 227.501 146.495 225.421 146.643 224.201L146.938 221.791L148.311 223.793C155.195 233.831 160.632 242.715 157.423 249.782C154.827 255.498 150.06 264.663 149.131 266.443C148.944 266.802 148.578 267.025 148.174 267.027H148.168Z" fill="#C4C3C1"/>
<path d="M149.529 268.824C143.807 263.348 136.866 257.186 127.365 255.092C117.865 253 113.35 254.018 111.659 254.494C116.059 261.908 120.457 265.588 129.741 268.758C138.878 271.878 149.197 269.643 149.197 269.643L149.529 268.824Z" fill="#78CEA8"/>
<path d="M125.537 281.074C129.879 285.721 134.577 286.843 139.408 287.649C147.419 288.985 153.451 284.746 154.717 283.763C147.779 280.825 144.556 279.761 139.308 279.274C131.409 278.545 127.649 280.018 125.537 281.074ZM142.563 289.746C141.457 289.746 140.304 289.657 139.107 289.458C134.975 288.77 128.732 287.73 123.368 281.394L122.62 280.51L123.652 279.985C123.769 279.925 123.895 279.859 124.027 279.789C126.011 278.749 130.141 276.585 139.477 277.447C144.999 277.958 148.335 279.063 155.556 282.126C156.023 282.323 156.24 282.863 156.043 283.329C156.025 283.369 156.007 283.407 155.984 283.442C156.085 283.494 156.179 283.566 156.257 283.657C156.589 284.041 156.548 284.619 156.165 284.951C155.911 285.173 150.531 289.746 142.563 289.746" fill="#C4C3C1"/>
<path d="M173.449 259.031C171.421 260.138 167.342 262.274 162.682 264.216C155.654 267.146 155.588 270.962 155.466 277.891C155.461 278.119 155.457 278.352 155.453 278.588C157.494 276.492 160.924 273.303 164.456 271.488C165.55 270.926 166.625 270.551 167.572 270.22C171.052 269.003 173.413 268.176 173.449 259.031ZM154.918 280.495H154.921H154.918ZM154.744 281.492C154.596 281.492 154.448 281.464 154.304 281.406C153.848 281.223 153.562 280.784 153.578 280.292C153.602 279.448 153.617 278.635 153.632 277.858C153.754 270.924 153.841 265.914 161.977 262.523C168.492 259.806 173.838 256.715 173.892 256.684L175.236 255.903L175.269 257.458C175.385 262.908 174.814 266.312 173.42 268.494C172.081 270.586 170.185 271.25 168.177 271.951C167.242 272.279 166.276 272.615 165.296 273.119C161.065 275.294 156.802 279.786 155.596 281.112C155.369 281.36 155.061 281.492 154.744 281.492Z" fill="#C4C3C1"/>
<path d="M158.301 294.549C157.885 294.549 157.507 294.263 157.409 293.842C152.971 275.035 144.598 258.785 132.521 245.537C132.179 245.163 132.206 244.582 132.581 244.242C132.954 243.901 133.535 243.927 133.877 244.301C146.166 257.782 154.685 274.307 159.194 293.419C159.311 293.913 159.005 294.407 158.511 294.523C158.441 294.539 158.37 294.549 158.301 294.549Z" fill="#78CEA8"/>
<path d="M317.095 238.939H282.763C278.447 238.939 274.948 235.439 274.948 231.123V201.126C274.948 196.809 278.447 193.309 282.763 193.309H317.095C321.41 193.309 324.91 196.809 324.91 201.126V231.123C324.91 235.439 321.41 238.939 317.095 238.939Z" fill="#DFDFDD"/>
<path d="M282.076 213.658H318.786V202.292H282.076V213.658ZM320.254 215.125H280.609V200.822H320.254V215.125Z" fill="#FAB80A"/>
<path d="M311.726 230.99H280.854C280.449 230.99 280.12 230.662 280.12 230.257C280.12 229.852 280.449 229.522 280.854 229.522H311.726C312.132 229.522 312.46 229.852 312.46 230.257C312.46 230.662 312.132 230.99 311.726 230.99Z" fill="white"/>
<path d="M319.521 223.223H299.929C299.523 223.223 299.195 222.895 299.195 222.488C299.195 222.084 299.523 221.755 299.929 221.755H319.521C319.926 221.755 320.254 222.084 320.254 222.488C320.254 222.895 319.926 223.223 319.521 223.223Z" fill="white"/>
<path d="M294.031 223.223H280.854C280.448 223.223 280.119 222.895 280.119 222.488C280.119 222.084 280.448 221.755 280.854 221.755H294.031C294.438 221.755 294.766 222.084 294.766 222.488C294.766 222.895 294.438 223.223 294.031 223.223Z" fill="white"/>
<path d="M302.358 267.566C301.681 267.566 301.13 267.014 301.13 266.336C301.13 265.658 301.681 265.108 302.358 265.108C303.035 265.108 303.586 265.658 303.586 266.336C303.586 267.014 303.035 267.566 302.358 267.566Z" fill="#F03B2B"/>
<path d="M315.523 267.566C314.846 267.566 314.295 267.014 314.295 266.336C314.295 265.658 314.846 265.108 315.523 265.108C316.201 265.108 316.751 265.658 316.751 266.336C316.751 267.014 316.201 267.566 315.523 267.566Z" fill="#F03B2B"/>
<path d="M328.689 267.566C328.012 267.566 327.461 267.014 327.461 266.336C327.461 265.658 328.012 265.108 328.689 265.108C329.366 265.108 329.917 265.658 329.917 266.336C329.917 267.014 329.366 267.566 328.689 267.566Z" fill="#F03B2B"/>
<path d="M187.301 10.0342L181.063 9.2889C180.91 9.27024 180.847 9.48224 180.989 9.54891L186.699 12.3009C186.794 12.3462 186.805 12.4782 186.718 12.5382L182.258 15.6116C182.126 15.7009 182.229 15.9062 182.381 15.8542L187.605 14.0769C187.707 14.0409 187.809 14.1356 187.781 14.2409L184.925 20.8982C184.883 21.0556 185.099 21.1422 185.177 21.0009L189.218 15.7262C189.283 15.6089 189.462 15.6436 189.475 15.7782C189.643 17.5409 190.215 21.0316 190.255 20.8756C190.301 20.7022 191.419 16.8582 191.753 15.4182C191.773 15.3369 191.85 15.2929 191.93 15.3209C192.918 15.6636 196.794 17.0302 196.625 16.9862C196.47 16.9462 193.829 13.8302 193.102 12.9676C193.027 12.8796 193.09 12.7449 193.206 12.7436L196.026 12.6862C196.181 12.6836 196.214 12.4649 196.065 12.4182L193.983 11.7556C193.885 11.7249 193.854 11.6022 193.926 11.5289L197.779 7.55824C197.881 7.45424 197.773 7.2849 197.635 7.3329L191.747 9.3649C191.65 9.39824 191.551 9.31691 191.566 9.21557L193.113 0.156904C193.135 0.00090423 192.918 -0.0644286 192.853 0.0795714C192.101 1.7249 189.699 6.5769 189.217 7.61957C189.169 7.72624 189.086 7.72224 188.993 7.65024C187.918 6.8329 187.117 6.16757 186.078 5.34757C185.957 5.25157 185.793 5.33957 185.845 5.48357L187.446 9.85024C187.482 9.94757 187.402 10.0462 187.301 10.0342Z" fill="#133139"/>
<path d="M7.27467 102.809C18.988 112.257 42.6653 122.382 56.9413 118.44C57.992 116.544 62.6467 107.873 65.6213 97.9958C59.08 99.8198 50.8613 98.4331 44.8453 96.8371C36.9973 94.7571 28.6053 91.1318 22.1907 87.0651C20.056 89.4131 12.9227 97.2171 7.27467 102.809ZM49.964 121.482C44.2747 121.482 37.584 120.205 30.404 117.7C20.796 114.346 11.2693 109.12 4.92 103.718L4 102.934L4.86533 102.092C11.58 95.5398 21.0893 85.0038 21.184 84.8958L21.816 84.1958L22.6067 84.7144C35.6413 93.2744 56.5267 99.5504 66.8373 95.2531L68.9133 94.3878L68.324 96.5584C64.9947 108.801 58.696 119.812 58.6333 119.921L58.4147 120.301L57.996 120.426C55.6413 121.132 52.9387 121.482 49.964 121.482" fill="#40BB6A"/>
<path d="M16.1309 103.505C30.3203 113.209 47.6096 114.948 50.8469 115.195C51.5403 114.433 53.1336 112.948 55.8736 111.759C57.0083 110.361 58.3709 106.753 59.0643 104.704C58.3829 104.26 57.4456 103.507 56.7496 102.393C55.9789 102.492 55.1656 102.539 54.3243 102.539C44.1256 102.54 29.3749 95.7226 25.4269 93.2306C24.5549 93.4706 22.7589 93.8359 20.6229 93.5452L14.9496 99.9732C15.4389 100.725 16.0496 101.96 16.1309 103.505ZM51.8723 117.449L51.2789 117.428C50.4443 117.391 30.6589 116.364 14.4029 104.987L13.9083 104.641L13.9349 104.037C14.0189 102.083 12.7469 100.689 12.7336 100.676L12.0376 99.9439L19.7923 91.1599L20.4096 91.2799C23.0256 91.7866 25.1909 91.0026 25.2136 90.9932L25.7563 90.7932L26.2336 91.1252C29.3843 93.3479 47.5376 101.88 57.1496 100.104L57.9976 99.9466L58.3523 100.733C59.0989 102.389 60.8136 103.175 60.8296 103.183L61.7363 103.579L61.4403 104.521C61.2216 105.213 59.2576 111.353 57.3456 113.421L57.1829 113.596L56.9616 113.689C53.6416 115.075 52.2349 116.956 52.2203 116.975L51.8723 117.449Z" fill="#40BB6A"/>
<path d="M32.3665 103.635H32.3692H32.3665ZM36.8145 101.901C35.7279 101.901 34.4159 102.39 33.3065 104.21C32.8612 104.939 32.7892 105.671 33.0932 106.389C33.5665 107.505 34.8545 108.398 36.5412 108.778C37.7239 109.045 38.7105 108.821 39.4772 108.11C40.4892 107.175 40.8652 105.627 40.7132 104.582C40.5745 103.627 39.2119 102.314 37.5945 101.982C37.3532 101.933 37.0919 101.901 36.8145 101.901ZM37.4465 111.086C36.9945 111.086 36.5305 111.034 36.0572 110.927C33.6799 110.39 31.8145 109.015 31.0665 107.249C30.4865 105.881 30.6145 104.393 31.4265 103.062C33.0092 100.47 35.4185 99.2899 38.0359 99.8259C40.4705 100.325 42.6025 102.274 42.8919 104.266C43.1732 106.21 42.4025 108.405 40.9732 109.727C40.0052 110.622 38.7852 111.086 37.4465 111.086Z" fill="#40BB6A"/>
<path d="M230.496 32.345C233.231 47.773 244.939 71.9623 258.874 78.6143C260.966 77.8543 270.615 74.2037 279.743 68.4343C273.339 65.4223 267.808 58.697 264.164 53.3223C259.415 46.3223 255.299 37.7343 253.042 30.1583C249.803 30.541 238.786 31.809 230.496 32.345ZM258.766 80.9863L258.366 80.8077C251.586 77.7423 244.56 70.2983 238.583 59.8463C233.331 50.6597 229.42 40.057 228.124 31.485L227.943 30.2903L229.15 30.2223C238.898 29.6623 253.559 27.8797 253.706 27.861L254.643 27.7463L254.899 28.6557C259.295 44.2877 271.419 63.489 282.464 67.1583L284.598 67.869L282.73 69.1183C271.76 76.457 259.303 80.801 259.18 80.8437L258.766 80.9863Z" fill="#40BB6A"/>
<path d="M258.383 71.7531C259.664 71.7531 261.204 71.9251 262.554 72.5544C264.723 71.6611 268.219 70.0011 269.887 69.1998C269.66 68.4518 269.532 67.4118 269.97 66.3131C261.318 60.3278 253.331 42.4358 251.67 37.0198C250.663 36.8091 248.954 36.1971 247.603 34.4171L238.812 35.5838C238.732 36.7091 238.414 38.5464 237.282 40.0584C242.719 60.0904 254.06 70.1478 256.212 71.9104C256.695 71.8398 257.474 71.7531 258.383 71.7531ZM262.408 74.9824L261.948 74.7171C260.098 73.6504 257.126 73.9491 256.135 74.1558L255.652 74.2558L255.256 73.9624C254.683 73.5371 241.124 63.2718 235.007 40.0744L234.854 39.4904L235.263 39.0464C236.771 37.4118 236.634 34.7104 236.634 34.6838L236.575 33.6624L237.586 33.5251L248.686 32.0518L249.062 32.6558C250.414 34.8304 252.474 34.9264 252.562 34.9291L253.394 34.9584L253.603 35.7678C254.734 40.3678 263.654 60.0744 271.994 64.9971L273.051 65.6198L272.315 66.6038C271.402 67.8278 272.226 69.1171 272.235 69.1304L272.916 70.1758L271.795 70.7238C271.55 70.8424 265.748 73.6664 262.902 74.7878L262.408 74.9824Z" fill="#40BB6A"/>
<path d="M250.603 49.8839L250.935 50.9332C249.727 51.3146 248.815 52.1639 248.497 53.2052C248.153 54.3292 248.493 55.5812 249.48 56.8239C250.255 57.7972 251.151 58.3359 252.071 58.3826C253.032 58.4279 254.025 57.9519 254.948 57.0026C255.799 56.1239 255.712 54.2146 254.748 52.6546C254.295 51.9186 253.011 50.2772 250.935 50.9332L250.603 49.8839ZM252.207 60.5879C252.125 60.5879 252.044 60.5852 251.963 60.5812C250.392 60.5039 248.937 59.6772 247.756 58.1932C246.319 56.3839 245.835 54.3839 246.392 52.5612C246.921 50.8279 248.372 49.4332 250.272 48.8332C252.699 48.0666 255.132 49.0879 256.621 51.4972C257.923 53.6052 258.308 56.6986 256.528 58.5346C255.223 59.8812 253.733 60.5879 252.207 60.5879" fill="#40BB6A"/>
<path d="M361.685 129.026C353.626 142.327 343.223 149.294 327.217 154.615C333.241 166.368 341.295 173.023 341.295 173.023C349.501 173.707 358.862 169.511 366.718 162.72C373.975 156.447 379.919 147.888 383.189 140.58C373.585 135.452 361.685 129.026 361.685 129.026Z" fill="white"/>
<path d="M341.726 171.95C348.9 172.413 357.725 168.755 366.016 161.873C372.753 156.279 378.376 148.702 381.562 140.959C373.801 136.811 364.904 132.014 362.074 130.486C358.185 136.613 352.782 142.201 346.393 146.699C340.57 150.797 334.177 153.763 328.229 155.145C333.445 164.706 340.326 170.774 341.726 171.95ZM342.937 174.191C342.35 174.191 341.773 174.167 341.204 174.119L340.872 174.091L340.612 173.885C340.249 173.597 331.657 166.701 325.593 154.871L324.924 153.565L326.366 153.289C339.236 150.834 353.37 140.622 360.744 128.455L361.286 127.558L362.208 128.057C362.325 128.119 373.976 134.415 383.469 139.481L384.328 139.941L383.976 140.85C380.734 149.243 374.7 157.523 367.421 163.566C359.206 170.386 350.394 174.191 342.937 174.191Z" fill="#40BB6A"/>
<path d="M341.579 164.872C344.103 165.062 346.463 166.668 347.403 167.386C348.574 167.147 351.949 166.303 356.218 163.876C361.033 161.136 367.993 155.768 373.991 145.696C373.281 143.882 373.502 141.963 373.734 140.872L365.805 136.351C364.058 137.648 362.29 137.782 361.275 137.718C358.297 142.595 350.235 151.678 338.131 155.582C338.037 156.867 337.383 157.786 336.789 158.364C337.827 159.791 339.953 162.708 341.579 164.872ZM346.762 169.715L346.386 169.391C346.361 169.367 343.593 167.03 341.035 167.056L340.477 167.064L340.139 166.619C337.899 163.655 334.415 158.843 334.382 158.794L333.637 157.764L334.761 157.175C334.89 157.102 336.114 156.382 335.918 154.926L335.791 153.992L336.694 153.724C349.138 150.003 357.207 140.499 359.735 135.994L360.151 135.252L360.974 135.466C361.049 135.484 363.059 135.943 364.945 134.208L365.537 133.664L376.353 139.831L376.053 140.695C376.046 140.718 375.19 143.286 376.207 145.263L376.483 145.799L376.178 146.322C369.834 157.186 362.353 162.94 357.193 165.854C351.549 169.04 347.426 169.624 347.253 169.648L346.762 169.715Z" fill="#40BB6A"/>
<path d="M356.746 150.141C355.815 150.141 355.033 150.552 354.629 150.812C353.197 151.736 352.363 153.356 352.691 154.58C352.995 155.711 353.635 156.549 354.542 157.004C355.441 157.456 356.545 157.481 357.571 157.074C359.063 156.484 359.995 155.46 360.191 154.193C360.378 153.003 359.863 151.78 358.817 150.92C358.107 150.339 357.391 150.141 356.746 150.141ZM356.094 159.562C355.207 159.562 354.337 159.365 353.553 158.972C352.091 158.237 351.03 156.881 350.565 155.151C349.981 152.975 351.162 150.429 353.437 148.961C355.667 147.521 358.265 147.62 360.214 149.219H360.213C361.87 150.576 362.674 152.563 362.367 154.533C362.049 156.572 360.597 158.244 358.383 159.12C357.637 159.416 356.859 159.562 356.094 159.562Z" fill="#40BB6A"/>
<path d="M158.787 64.0768C158.787 55.9754 152.219 49.4088 144.117 49.4088C136.017 49.4088 129.449 55.9754 129.449 64.0768C129.449 72.1781 136.017 78.7461 144.117 78.7461C152.219 78.7461 158.787 72.1781 158.787 64.0768Z" fill="#FAB80A"/>
<path d="M144.117 52.4792C137.722 52.4792 132.52 57.6832 132.52 64.0779C132.52 70.4739 137.722 75.6765 144.117 75.6765C150.513 75.6765 155.716 70.4739 155.716 64.0779C155.716 57.6832 150.513 52.4792 144.117 52.4792ZM144.117 77.1445C136.913 77.1445 131.052 71.2819 131.052 64.0779C131.052 56.8725 136.913 51.0112 144.117 51.0112C151.322 51.0112 157.184 56.8725 157.184 64.0779C157.184 71.2819 151.322 77.1445 144.117 77.1445Z" fill="white"/>
<path d="M143.509 59.3326C142.964 59.4086 142.534 59.5779 142.234 59.8353C141.917 60.1086 141.754 60.4566 141.749 60.8699C141.745 61.2873 141.873 61.6419 142.134 61.9273C142.24 62.0433 142.38 62.1579 142.553 62.2699C142.78 62.4166 143.072 62.5633 143.421 62.7059L143.734 62.8353L143.773 59.2953L143.509 59.3326ZM145.828 65.3926C145.57 65.2273 145.23 65.0633 144.816 64.9046L144.508 64.7873L144.468 68.3939L144.733 68.3566C146.269 68.1379 146.6 67.3486 146.606 66.7246C146.61 66.2953 146.462 65.9339 146.162 65.6499C146.07 65.5633 145.958 65.4766 145.828 65.3926V65.3926ZM143.658 69.7299L143.432 69.7233C141.981 69.6846 140.77 69.4566 139.826 69.0459L139.844 67.5659C140.317 67.7753 140.856 67.9593 141.448 68.1126C142.184 68.3046 142.854 68.4073 143.44 68.4193L143.673 68.4246L143.716 64.5046L142.777 64.1459C142.281 63.9499 141.845 63.7313 141.484 63.4979C141.134 63.2713 140.845 63.0273 140.628 62.7686C140.193 62.2513 139.984 61.6313 139.992 60.8699C140.001 60.0673 140.313 59.4273 140.945 58.9166C141.588 58.3966 142.476 58.0806 143.582 57.9779L143.788 57.9593L143.806 56.3979L144.6 56.4059L144.582 57.9553L144.805 57.9646C145.969 58.0179 147.089 58.2553 148.137 58.6739L147.604 59.9699C146.674 59.6113 145.737 59.3886 144.814 59.3059L144.568 59.2846L144.526 63.1259L145.386 63.4646C146.048 63.7273 146.6 63.9993 147.025 64.2739C147.334 64.4739 147.584 64.6793 147.762 64.8819C148.181 65.3579 148.381 65.9193 148.373 66.6033C148.365 67.4539 148.054 68.1313 147.428 68.6753C146.796 69.2246 145.864 69.5633 144.658 69.6819L144.453 69.7019L144.43 71.7246L143.637 71.7166L143.658 69.7299Z" fill="white"/>
<path d="M383.32 79.8043C383.32 70.299 375.615 62.595 366.111 62.595C356.605 62.595 348.9 70.299 348.9 79.8043C348.9 89.3097 356.605 97.0137 366.111 97.0137C375.615 97.0137 383.32 89.3097 383.32 79.8043Z" fill="#FAB80A"/>
<path d="M366.111 66.0699C358.537 66.0699 352.376 72.2312 352.376 79.8045C352.376 87.3765 358.537 93.5392 366.111 93.5392C373.684 93.5392 379.845 87.3765 379.845 79.8045C379.845 72.2312 373.684 66.0699 366.111 66.0699ZM366.111 95.0059C357.728 95.0059 350.909 88.1872 350.909 79.8045C350.909 71.4232 357.728 64.6019 366.111 64.6019C374.492 64.6019 381.312 71.4232 381.312 79.8045C381.312 88.1872 374.492 95.0059 366.111 95.0059Z" fill="white"/>
<path d="M365.396 74.2367C364.756 74.3247 364.253 74.5247 363.901 74.8261C363.529 75.1487 363.336 75.5567 363.33 76.0421C363.325 76.5314 363.478 76.9474 363.782 77.2821C363.906 77.4181 364.073 77.5527 364.274 77.6834C364.54 77.8554 364.882 78.0274 365.293 78.1967L365.661 78.3474L365.706 74.1941L365.396 74.2367ZM368.117 81.3474C367.814 81.1527 367.416 80.9607 366.929 80.7741L366.568 80.6367L366.521 84.8687L366.832 84.8234C368.634 84.5687 369.022 83.6421 369.03 82.9114C369.034 82.4061 368.861 81.9834 368.509 81.6501C368.401 81.5474 368.269 81.4461 368.117 81.3474ZM365.572 86.4354L365.306 86.4287C363.605 86.3821 362.184 86.1154 361.077 85.6341L361.094 83.8967C361.652 84.1434 362.284 84.3594 362.978 84.5394C363.841 84.7634 364.628 84.8834 365.314 84.8994L365.589 84.9047L365.64 80.3061L364.537 79.8847C363.956 79.6541 363.444 79.3981 363.021 79.1247C362.609 78.8594 362.27 78.5714 362.016 78.2687C361.505 77.6621 361.26 76.9341 361.27 76.0421C361.281 75.0981 361.645 74.3501 362.388 73.7501C363.142 73.1394 364.182 72.7674 365.481 72.6501L365.724 72.6261L365.744 70.7941L366.676 70.8047L366.656 72.6207L366.917 72.6327C368.281 72.6954 369.594 72.9754 370.825 73.4647L370.201 74.9847C369.109 74.5634 368.01 74.3034 366.928 74.2087L366.638 74.1821L366.589 78.6874L367.598 79.0861C368.374 79.3941 369.022 79.7127 369.521 80.0354C369.885 80.2687 370.176 80.5101 370.386 80.7501C370.877 81.3061 371.112 81.9661 371.102 82.7674C371.092 83.7647 370.729 84.5607 369.994 85.1981C369.252 85.8421 368.157 86.2394 366.745 86.3794L366.504 86.4034L366.478 88.7754L365.545 88.7661L365.572 86.4354Z" fill="white"/>
<path d="M99.1585 178.879C99.1585 168.013 90.3492 159.203 79.4812 159.203C68.6145 159.203 59.8052 168.013 59.8052 178.879C59.8052 189.746 68.6145 198.557 79.4812 198.557C90.3492 198.557 99.1585 189.746 99.1585 178.879Z" fill="#FAB80A"/>
<path d="M79.4816 163.072C70.7656 163.072 63.6736 170.162 63.6736 178.878C63.6736 187.597 70.7656 194.688 79.4816 194.688C88.1989 194.688 95.2882 187.597 95.2882 178.878C95.2882 170.162 88.1989 163.072 79.4816 163.072ZM79.4816 196.154C69.9549 196.154 62.2056 188.405 62.2056 178.878C62.2056 169.353 69.9549 161.604 79.4816 161.604C89.0082 161.604 96.7576 169.353 96.7576 178.878C96.7576 188.405 89.0082 196.154 79.4816 196.154Z" fill="white"/>
<path d="M78.6652 172.513C77.9332 172.614 77.3572 172.842 76.9559 173.189C76.5292 173.554 76.3106 174.022 76.3039 174.577C76.2986 175.135 76.4719 175.613 76.8212 175.994C76.9626 176.151 77.1519 176.305 77.3839 176.454C77.6879 176.651 78.0786 176.847 78.5466 177.041L78.9679 177.211L79.0199 172.465L78.6652 172.513ZM81.7759 180.643C81.4306 180.421 80.9732 180.201 80.4172 179.987L80.0039 179.83L79.9506 184.669L80.3066 184.618C82.3666 184.325 82.8106 183.266 82.8199 182.429C82.8266 181.854 82.6266 181.369 82.2239 180.987C82.1012 180.873 81.9506 180.755 81.7759 180.643V180.643ZM78.8652 186.461L78.5626 186.451C76.6172 186.399 74.9919 186.094 73.7266 185.543L73.7479 183.557C74.3852 183.839 75.1066 184.086 75.8999 184.291C76.8866 184.547 77.7866 184.687 78.5732 184.705L78.8852 184.71L78.9426 179.451L77.6839 178.971C77.0186 178.707 76.4332 178.414 75.9492 178.101C75.4786 177.798 75.0919 177.469 74.8012 177.123C74.2159 176.43 73.9372 175.597 73.9479 174.577C73.9599 173.499 74.3786 172.642 75.2252 171.955C76.0879 171.258 77.2772 170.834 78.7626 170.698L79.0399 170.671L79.0626 168.577L80.1279 168.589L80.1052 170.666L80.4026 170.679C81.9639 170.75 83.4666 171.07 84.8732 171.63L84.1586 173.367C82.9119 172.887 81.6546 172.589 80.4172 172.481L80.0852 172.45L80.0279 177.601L81.1839 178.057C82.0719 178.409 82.8106 178.774 83.3812 179.142C83.7972 179.411 84.1306 179.686 84.3719 179.959C84.9319 180.595 85.1999 181.35 85.1906 182.266C85.1772 183.407 84.7626 184.317 83.9226 185.045C83.0732 185.782 81.8226 186.237 80.2066 186.395L79.9319 186.423L79.9012 189.137L78.8359 189.125L78.8652 186.461Z" fill="white"/>
<path d="M199.571 76.7822C211.217 73.8648 226.539 76.4315 231.257 70.2462C233.753 73.3315 231.149 75.3115 231.149 75.3115C234.102 74.3982 236.071 73.1822 236.071 73.1822C239.866 80.0488 240.417 98.5355 237.795 104.271C236.851 95.7488 235.435 86.6008 221.074 84.0848C206.71 81.5688 199.571 76.7822 199.571 76.7822Z" fill="#2D2F33"/>
<path d="M276.022 136.032C273.755 138.937 240.626 178.781 240.626 178.781L285.518 186.18C285.518 186.18 305.949 155.542 308.19 145.141C309.371 139.657 315.899 75.2664 315.899 75.2664C321.029 69.9997 323.623 60.4783 324.607 57.441C325.989 53.181 328.106 47.745 330.329 42.149C331.213 39.9317 331.103 38.8184 330.227 37.957C329.159 36.905 327.185 37.1677 325.765 38.7397C323.666 41.0623 321.181 45.9784 319.241 49.009C319.218 49.0437 319.165 49.017 319.181 48.9783C319.962 47.053 323.847 37.421 325.305 32.7277C326.043 30.3477 325.53 28.7864 324.445 28.0237C323.147 27.1104 320.854 27.3144 319.962 29.4184C319.029 31.617 314.878 40.9423 312.845 45.2917C312.829 45.3223 312.783 45.3063 312.793 45.273C313.379 43.1703 316.631 31.3104 316.902 26.2504C317.045 23.5917 315.813 22.5197 314.375 22.3863C312.07 22.173 310.973 23.369 310.41 24.9437C309.365 27.8717 306.854 40.3117 305.701 43.8317C305.665 43.941 305.503 43.917 305.502 43.8024C305.489 41.0344 306.173 32.3224 306.297 27.7837C306.431 22.893 301.217 23.969 300.63 26.665C300.043 29.3623 298.771 35.4303 298.411 39.2237C298.05 43.017 296.939 52.4063 296.369 52.4957C295.041 51.0877 293.677 49.545 292.955 45.617C291.89 39.825 286.386 39.4517 285.406 41.7917C284.426 44.1317 286.595 54.061 287.793 59.5517C288.922 64.7343 290.181 66.7823 291.455 70.645C291.951 72.1437 292.037 73.5637 291.919 74.7904C291.837 75.653 277.135 131.28 276.022 136.032Z" fill="#F7967C"/>
<path d="M138.112 137.143C140.52 139.44 188.016 175.74 188.016 175.74L136.028 188.223C136.028 188.223 109.335 158.201 104.88 148.539C102.532 143.444 84.1172 84.6667 84.1172 84.6667C77.9639 80.644 73.3545 71.9187 71.7319 69.168C69.4559 65.312 66.2052 60.468 62.8145 55.4933C61.4705 53.52 61.3345 52.4093 61.9999 51.3787C62.8132 50.1187 64.7985 49.9453 66.5265 51.1693C69.0812 52.9787 72.5785 57.2347 75.1319 59.7693C75.1612 59.7987 75.2079 59.7613 75.1852 59.7267C74.0025 58.0173 68.1105 49.464 65.6665 45.2013C64.4252 43.04 64.5852 41.404 65.4785 40.4227C66.5465 39.2493 68.8292 38.948 70.1572 40.8067C71.5479 42.7507 77.6319 50.9453 80.5639 54.7467C80.5852 54.7747 80.6279 54.748 80.6119 54.7173C79.5812 52.7933 73.8212 41.928 72.4532 37.048C71.7345 34.484 72.7039 33.1707 74.0785 32.7267C76.2799 32.016 77.6119 32.944 78.5039 34.3587C80.1625 36.988 85.3252 48.5813 87.2185 51.7653C87.2772 51.864 87.4292 51.8053 87.4052 51.6933C86.8159 48.988 84.2492 40.636 83.1385 36.232C81.9412 31.488 87.2625 31.4027 88.4239 33.9067C89.5852 36.4093 92.1479 42.0547 93.3279 45.6787C94.5065 49.3027 97.6399 58.2227 98.2145 58.1853C99.2039 56.5227 100.197 54.72 100.045 50.7293C99.8212 44.844 105.112 43.2813 106.58 45.3507C108.047 47.42 108.093 57.5827 108.123 63.2027C108.149 68.5067 107.368 70.7813 106.965 74.828C106.808 76.3973 106.987 77.8213 107.417 78.9747C108.564 82.0453 136.079 133.029 138.112 137.143Z" fill="#F7967C"/>
<path d="M239.053 106.285C238.602 87.5677 233.654 79.0277 222.096 78.5557C215.189 78.273 212.684 73.2797 204.786 75.301C200.277 76.4557 195.98 77.8703 192.325 79.417C182.904 83.3997 174.988 88.957 176.036 101.484C162.512 111.078 169.533 130.093 182.074 138.429C195.98 147.673 202.508 148.368 210.685 139.761C218.861 131.153 239.053 106.285 239.053 106.285Z" fill="#2D2F33"/>
<path d="M194.118 171.448C195.378 165.017 195.074 153.448 194.109 144.933V144.934C186.769 146.554 183.392 143.264 181.917 140.894C180.246 138.206 180.292 133.737 184.197 131.164C185.926 130.024 189.957 128.962 194.081 131.277C194.656 124.108 193.318 111.606 188.016 106.386C201.512 105.469 227.417 97.637 234.684 93.1983C239.98 104.086 242.416 108.304 245.973 120.657C249.552 133.085 246.98 145.214 240.758 150.572C238.52 152.498 235.261 154.029 231.128 154.846C231.298 159.642 231.522 168.581 233.16 175.822L226.752 188.125L194.118 171.448Z" fill="#F7967C"/>
<path d="M184.47 135.598C184.355 135.598 184.239 135.57 184.131 135.515C183.772 135.327 183.632 134.884 183.82 134.524C184.478 133.26 185.702 132.37 187.176 132.084C188.931 131.744 190.851 132.288 192.312 133.538C192.619 133.8 192.656 134.264 192.391 134.572C192.128 134.88 191.664 134.916 191.358 134.652C190.232 133.69 188.775 133.27 187.456 133.524C186.407 133.73 185.578 134.324 185.122 135.202C184.991 135.454 184.735 135.598 184.47 135.598Z" fill="#CF4241"/>
<path d="M233.708 113.521C234.293 115.202 235.569 116.286 236.555 115.942C237.541 115.6 237.865 113.957 237.28 112.276C236.693 110.596 235.42 109.51 234.433 109.854C233.448 110.198 233.123 111.84 233.708 113.521Z" fill="#2D2F33"/>
<path d="M212.781 118.248C213.365 119.929 213.041 121.569 212.054 121.913C211.069 122.257 209.794 121.173 209.208 119.492C208.622 117.81 208.948 116.168 209.933 115.826C210.92 115.482 212.196 116.565 212.781 118.248Z" fill="#2D2F33"/>
<path d="M200.755 115.201C200.671 115.201 200.586 115.189 200.502 115.165C200.014 115.025 199.732 114.517 199.872 114.031C201.684 107.713 206.754 104.972 210.894 104.515C211.395 104.453 211.85 104.823 211.906 105.327C211.962 105.829 211.599 106.284 211.095 106.339C209.374 106.529 203.603 107.683 201.636 114.536C201.52 114.94 201.154 115.201 200.755 115.201Z" fill="#2D2F33"/>
<path d="M231.402 130.129C231.075 130.129 230.778 129.91 230.693 129.58C230.59 129.188 230.825 128.786 231.217 128.685C232.397 128.378 233.405 127.626 233.85 126.724C234.034 126.353 234.199 125.785 233.947 125.192C233.535 124.216 232.247 123.828 230.882 123.417C230.353 123.258 229.806 123.093 229.291 122.886C226.034 121.581 224.666 118.61 223.517 114.244C223.414 113.85 223.649 113.449 224.041 113.346C224.431 113.244 224.833 113.478 224.935 113.87C226.173 118.565 227.455 120.569 229.837 121.525C230.291 121.706 230.783 121.854 231.306 122.012C232.859 122.48 234.618 123.01 235.299 124.618C235.663 125.482 235.617 126.46 235.166 127.373C234.529 128.666 233.191 129.689 231.587 130.105C231.525 130.121 231.463 130.129 231.402 130.129Z" fill="#CF4241"/>
<path d="M231.127 154.845C226.033 155.68 221.249 155.176 214.993 153.997C219.855 158.737 231.359 160.664 231.359 160.664C231.281 159.004 231.127 154.845 231.127 154.845Z" fill="#E07563"/>
<path d="M235.202 136.376C234.732 140.831 229.042 144.507 225.006 144.296C220.727 144.073 217.798 142.269 217.03 137.903C216.882 137.056 217.21 136.184 217.967 136.144L234.375 135.268C234.899 135.239 235.266 135.765 235.202 136.376Z" fill="#BD383D"/>
<path d="M194.309 145.623C193.975 145.623 193.673 145.392 193.595 145.054C193.503 144.658 193.75 144.264 194.145 144.174C194.922 143.994 195.73 143.762 196.549 143.479C196.933 143.347 197.349 143.551 197.482 143.934C197.614 144.318 197.41 144.735 197.026 144.867C196.161 145.164 195.302 145.414 194.475 145.603C194.419 145.616 194.363 145.623 194.309 145.623Z" fill="#CF4241"/>
<path d="M238.706 102.451C238.546 102.451 238.383 102.41 238.234 102.321C235.048 100.413 230.784 100.679 228.22 101.926C227.764 102.149 227.215 101.959 226.994 101.503C226.772 101.049 226.96 100.499 227.416 100.278C230.334 98.8578 235.256 98.3992 239.178 100.747C239.612 101.007 239.754 101.57 239.494 102.005C239.322 102.293 239.016 102.451 238.706 102.451Z" fill="#2D2F33"/>
<path d="M235.202 136.378C235.266 135.767 234.899 135.24 234.375 135.27L217.992 136.144C217.234 136.184 216.918 136.944 217.011 137.803C217.036 138.023 217.06 138.227 217.128 138.43L234.978 137.574C235.075 137.188 235.158 136.794 235.202 136.378Z" fill="white"/>
<path d="M162.81 224.504C155.891 216.666 145.198 204.15 132.616 190.758C141.531 181.547 158.875 162.531 164.264 156.891C173.962 163.915 188.63 174.242 188.63 174.242L193.594 170.943L225.77 184.774L233.994 174.43L239.956 177.719C247.482 169.14 251.208 164.814 255.09 160.171C262.219 165.571 278.978 178.11 288.099 186.706L261.73 228.474C261.743 229.012 261.571 277.442 261.488 293.732L159.036 293.284C159.899 282.624 161.962 242.418 162.81 224.504Z" fill="#F03B2B"/>
<path d="M216.218 198.285L188.547 175.032C188.238 174.77 188.196 174.308 188.459 173.997C188.719 173.688 189.182 173.646 189.492 173.908L216.023 196.205L225.82 184.225L234.528 190.59L238.631 178.012C238.756 177.625 239.171 177.414 239.556 177.54C239.942 177.666 240.152 178.081 240.026 178.466L235.298 192.97L226.078 186.23L216.218 198.285Z" fill="#B61D23"/>
<path d="M261.704 229.207C261.299 229.207 260.971 228.882 260.97 228.476C260.959 225.967 260.924 223.004 260.746 220.048C260.723 219.643 261.03 219.295 261.435 219.271C261.839 219.254 262.187 219.555 262.212 219.959C262.392 222.952 262.427 225.942 262.438 228.471C262.439 228.876 262.112 229.206 261.707 229.207H261.704Z" fill="#B61D23"/>
<path d="M134.505 139.852C134.251 139.852 134.001 139.717 133.867 139.48C133.667 139.126 133.791 138.678 134.144 138.48L137.42 136.625C137.772 136.426 138.219 136.549 138.42 136.902C138.619 137.256 138.495 137.704 138.143 137.902L134.867 139.757C134.753 139.822 134.628 139.852 134.505 139.852Z" fill="#CF4241"/>
<path d="M94.6872 70.5664C94.3792 70.5664 94.0925 70.3717 93.9912 70.0624C93.9098 69.8184 92.0898 64.0637 96.8258 59.0131C97.1032 58.7171 97.5672 58.7037 97.8632 58.9811C98.1592 59.2584 98.1738 59.7211 97.8965 60.0184C93.7498 64.4384 95.3685 69.5517 95.3845 69.6024C95.5112 69.9877 95.3018 70.4024 94.9165 70.5304C94.8405 70.5544 94.7645 70.5664 94.6872 70.5664Z" fill="#CF4241"/>
<path d="M75.3596 63.6582C75.2143 63.6582 75.0663 63.6142 74.9383 63.5235C74.6063 63.2915 74.5263 62.8329 74.7596 62.5022C77.4516 58.6729 85.753 53.7342 91.2436 53.6462C91.6436 53.6502 91.9823 53.9622 91.989 54.3675C91.9956 54.7729 91.673 55.1062 91.2676 55.1129C86.3983 55.1915 78.3876 59.8942 75.961 63.3462C75.8183 63.5489 75.5903 63.6582 75.3596 63.6582Z" fill="#CF4241"/>
<path d="M302.35 63.8281C302.326 63.8281 302.302 63.8268 302.277 63.8241C301.874 63.7841 301.58 63.4241 301.62 63.0228C301.64 62.8028 302.064 57.6068 297.078 54.2148C296.744 53.9855 296.656 53.5295 296.884 53.1935C297.112 52.8601 297.569 52.7721 297.904 53.0001C303.628 56.8975 303.105 62.9121 303.08 63.1655C303.044 63.5441 302.724 63.8281 302.35 63.8281Z" fill="#CF4241"/>
<path d="M319.706 52.8711C319.53 52.8711 319.352 52.8084 319.212 52.6804C316.091 49.8404 307.247 46.9978 302.479 47.9818C302.08 48.0631 301.694 47.8098 301.612 47.4124C301.53 47.0151 301.786 46.6271 302.182 46.5458C307.56 45.4351 316.736 48.4444 320.199 51.5938C320.5 51.8671 320.522 52.3311 320.248 52.6311C320.104 52.7898 319.904 52.8711 319.706 52.8711Z" fill="#CF4241"/>
<path d="M278.742 137.781C278.652 137.781 278.557 137.764 278.468 137.728L276.153 136.791C275.777 136.639 275.597 136.211 275.748 135.835C275.9 135.46 276.328 135.279 276.704 135.429L279.018 136.367C279.393 136.52 279.576 136.947 279.424 137.323C279.308 137.608 279.033 137.781 278.742 137.781Z" fill="#CF4241"/>
<path d="M109.06 81.5876L112.024 87.3449L87.5277 96.6836L85.8931 90.9209L109.06 81.5876Z" fill="#5B57B0"/>
<path d="M184.685 83.4141C190.986 79.5247 204.625 74.5194 208.861 73.1807C213.303 71.7754 217.299 69.5634 217.299 69.5634C217.575 72.5381 217.338 75.1194 211.757 77.7154C206.173 80.3101 184.685 83.4141 184.685 83.4141Z" fill="#2D2F33"/>
<path d="M176.57 102.406C176.41 102.406 176.25 102.356 176.114 102.249C172.565 99.4409 171.718 95.4609 171.683 95.2929C171.602 94.8956 171.859 94.5089 172.257 94.4276C172.653 94.3436 173.041 94.6023 173.122 94.9996C173.129 95.0343 173.909 98.6329 177.025 101.097C177.343 101.349 177.397 101.81 177.146 102.128C177.001 102.312 176.786 102.406 176.57 102.406Z" fill="#2D2F33"/>
<path d="M210.656 107.125C209.946 107.125 209.243 107.246 208.57 107.502C206.628 108.238 205.184 109.981 204.507 112.409C203.804 114.917 204.002 117.837 205.06 120.63C206.119 123.425 207.906 125.741 210.095 127.154C212.212 128.522 214.448 128.872 216.39 128.136C218.331 127.4 219.774 125.657 220.454 123.229C221.154 120.72 220.958 117.801 219.899 115.006C218.099 110.257 214.256 107.125 210.656 107.125ZM214.3 129.982C212.647 129.982 210.934 129.444 209.298 128.386C206.85 126.805 204.856 124.236 203.687 121.152C202.518 118.066 202.307 114.821 203.092 112.013C203.902 109.125 205.662 107.036 208.05 106.13C212.899 104.293 218.828 108.041 221.271 114.486C222.44 117.572 222.651 120.817 221.866 123.624C221.059 126.513 219.298 128.601 216.908 129.508C216.072 129.825 215.194 129.982 214.3 129.982" fill="#5B57B0"/>
<path d="M234.696 100.901C234.034 100.901 233.382 101.015 232.755 101.253C230.891 101.959 229.515 103.671 228.886 106.075C228.231 108.567 228.455 111.481 229.515 114.277C231.33 119.061 235.126 122.236 238.631 122.236C239.295 122.236 239.947 122.123 240.574 121.884C242.439 121.179 243.812 119.467 244.443 117.063C245.096 114.571 244.872 111.656 243.812 108.86C242 104.076 238.203 100.901 234.696 100.901ZM238.668 123.697C234.55 123.697 230.178 120.167 228.143 114.799C226.976 111.717 226.735 108.487 227.466 105.703C228.22 102.827 229.914 100.76 232.234 99.8786C236.934 98.0999 242.742 101.895 245.184 108.339C246.352 111.42 246.594 114.651 245.862 117.435C245.108 120.311 243.415 122.377 241.094 123.257C240.31 123.555 239.494 123.697 238.668 123.697" fill="#5B57B0"/>
<path d="M194.131 131.297C193.921 131.297 193.711 131.206 193.565 131.032C193.307 130.718 193.35 130.257 193.662 129.997L204.269 121.205C204.579 120.945 205.043 120.99 205.301 121.301C205.559 121.613 205.517 122.076 205.205 122.333L194.599 131.128C194.462 131.241 194.295 131.297 194.131 131.297Z" fill="#5B57B0"/>
<path d="M221.186 115.816L220.325 114.626C222.075 113.359 225.811 112.038 228.19 112.166L228.11 113.631C226.099 113.523 222.675 114.736 221.186 115.816Z" fill="#5B57B0"/>
<path d="M175.947 99.7344C175.863 93.0477 177.435 84.8717 186.086 79.9957C183.726 83.6917 185.653 87.2597 185.653 87.2597L175.947 99.7344Z" fill="#2D2F33"/>
<path d="M181.591 235.84L191.95 244.04L203.495 237.214L204.024 220.586L181.958 219.595L181.591 235.84ZM191.828 245.816L180.107 236.538L180.526 218.063L205.538 219.183L204.936 238.067L191.828 245.816Z" fill="#B61D23"/>
<path d="M162.997 210.728C164.175 210.728 167.217 217.962 167.721 221.575C169.087 231.388 166.345 247.638 166.712 260.499C166.989 270.215 165.795 293.631 165.795 293.631L159.075 292.81L162.82 224.426L132.617 190.758L140.232 182.74C140.232 182.74 155.979 206.295 162.997 210.728Z" fill="#EF3021"/>
<path d="M162.82 224.594H162.81C162.404 224.587 162.08 224.255 162.086 223.848C162.15 219.412 162.263 210.719 162.263 210.719L163.732 210.738C163.732 210.738 163.618 219.434 163.554 223.87C163.548 224.272 163.222 224.594 162.82 224.594Z" fill="#B61D23"/>
<path d="M135.544 187.676L140.628 182.306C124.813 167.148 111.549 154.508 108.277 145.812C104.888 136.8 88.4453 98.4091 88.4453 98.4091V98.4104C94.0413 116.11 103.264 145.034 104.88 148.538C108.98 157.432 131.92 183.573 135.544 187.676Z" fill="#F57C73"/>
</g>
<defs>
<filter id="filter0_d" x="0" y="0" width="388.328" height="302.548" filterUnits="userSpaceOnUse" color-interpolation-filters="sRGB">
<feFlood flood-opacity="0" result="BackgroundImageFix"/>
<feColorMatrix in="SourceAlpha" type="matrix" values="0 0 0 0 0 0 0 0 0 0 0 0 0 0 0 0 0 0 127 0" result="hardAlpha"/>
<feOffset dy="4"/>
<feGaussianBlur stdDeviation="2"/>
<feComposite in2="hardAlpha" operator="out"/>
<feColorMatrix type="matrix" values="0 0 0 0 0 0 0 0 0 0 0 0 0 0 0 0 0 0 0.25 0"/>
<feBlend mode="normal" in2="BackgroundImageFix" result="effect1_dropShadow"/>
<feBlend mode="normal" in="SourceGraphic" in2="effect1_dropShadow" result="shape"/>
</filter>
</defs>
</svg>
