<svg width="326" height="247" viewBox="0 0 326 247" fill="none" xmlns="http://www.w3.org/2000/svg">
<path d="M280.331 190.703C269.166 200.246 248.198 210.421 236.117 207.919C241.618 218.658 249.821 227.65 249.821 227.65C265.293 229.345 287.615 217.821 298.11 206.316C290.373 199.557 280.331 190.703 280.331 190.703Z" fill="white"/>
<path d="M250.381 226.71C265.158 228.077 286.205 217.297 296.624 206.383C290.305 200.86 282.68 194.143 280.313 192.06C270.062 200.503 250.798 210.383 237.996 209.194C242.742 217.866 249.01 225.156 250.381 226.71ZM252.954 228.801C251.828 228.801 250.74 228.744 249.692 228.628L249.265 228.582L248.989 228.28C248.906 228.189 240.632 219.067 235.134 208.337L234.198 206.507L236.356 206.955C241.618 208.042 249.345 206.613 258.116 202.928C265.908 199.655 273.936 194.814 279.592 189.981L280.344 189.337L281.084 189.99C281.185 190.08 291.213 198.921 298.858 205.6L299.588 206.238L298.942 206.946C293.564 212.844 285.32 218.625 276.324 222.811C267.916 226.724 259.758 228.801 252.954 228.801Z" fill="#40BB6A"/>
<path d="M250.393 220.35C252.901 220.606 255.194 222.162 256.065 222.822C258.618 222.616 272.815 220.918 287.561 208.094C287.371 206.353 288.089 204.75 288.598 203.862L282.289 198.034C280.282 198.734 278.566 198.416 277.625 198.115C273.469 201.502 257.637 211.533 247.305 212.11C247.114 213.151 246.483 213.887 245.917 214.355C246.885 215.67 248.871 218.355 250.393 220.35ZM255.283 224.836L254.957 224.56C254.931 224.538 252.294 222.339 249.779 222.291L249.229 222.28L248.914 221.869C246.817 219.138 243.566 214.707 243.533 214.663L242.838 213.715L243.965 213.223C244.095 213.162 245.323 212.556 245.183 211.243L245.065 210.146L246.273 210.158C246.313 210.16 246.355 210.16 246.395 210.16C255.949 210.16 273.355 199.249 276.635 196.253L277.225 195.714L277.947 196.099C278.013 196.133 279.798 197.016 282.042 195.975L282.749 195.646L291.357 203.597L290.842 204.271C290.829 204.289 289.338 206.3 289.775 208.257L289.894 208.788L289.467 209.165C272.479 224.162 256.405 224.803 255.729 224.824L255.283 224.836Z" fill="#40BB6A"/>
<path d="M268.995 208.24C268.143 208.24 267.392 208.54 267.072 208.69C265.467 209.441 264.42 210.866 264.69 211.937C264.948 212.961 265.547 213.735 266.422 214.173C267.29 214.606 268.374 214.664 269.399 214.334C270.846 213.865 271.764 213.08 272.054 212.066C272.328 211.101 271.994 210.007 271.158 209.139C270.495 208.452 269.708 208.24 268.995 208.24ZM268.072 216.521C267.124 216.521 266.198 216.315 265.38 215.905C263.968 215.198 262.974 213.945 262.579 212.38C262.016 210.141 263.915 207.946 266.083 206.932C268.564 205.773 271.132 206.12 272.786 207.835C274.095 209.196 274.606 210.962 274.15 212.563C273.678 214.218 272.247 215.508 270.123 216.195C269.45 216.414 268.755 216.521 268.072 216.521Z" fill="#40BB6A"/>
<path d="M272.309 125.584C257.973 130.458 234.327 132.469 224.236 125.91C224.773 137.753 228.541 148.936 228.541 148.936C242.097 155.944 267.565 153.165 282.112 146.243C277.832 137.286 272.309 125.584 272.309 125.584Z" fill="white"/>
<path d="M229.454 148.267C242.5 154.725 266.484 152.188 280.71 145.785C277.216 138.465 273.019 129.585 271.718 126.829C258.691 131.012 236.742 133.351 225.431 127.749C226.146 137.42 228.844 146.35 229.454 148.267ZM249.386 153.998C240.788 153.998 233.332 152.549 228.007 149.795L227.632 149.602L227.506 149.226C227.468 149.113 223.691 137.784 223.155 125.949L223.064 123.934L224.866 125.105C229.259 127.963 236.988 129.363 246.643 129.047C255.215 128.768 264.67 127.127 271.931 124.658L272.896 124.329L273.304 125.193C273.359 125.31 278.872 136.996 283.104 145.849L283.508 146.693L282.612 147.12C275.156 150.667 265.106 153.103 255.036 153.799C253.108 153.931 251.22 153.998 249.386 153.998" fill="#40BB6A"/>
<path d="M236.342 146.677C238.784 147.386 252.602 150.815 271.628 144.172C272.188 142.498 273.53 141.272 274.374 140.632L271.015 133.036C268.868 132.975 267.42 132.077 266.679 131.468C261.412 133.13 242.564 136.815 232.788 133.712C232.172 134.605 231.28 135.062 230.558 135.296C230.896 136.85 231.592 140.025 232.154 142.401C234.36 143.519 235.815 145.763 236.342 146.677ZM248.844 150.213C240.555 150.213 235.544 148.529 235.187 148.405L234.768 148.262L234.586 147.891C234.571 147.863 233.067 144.904 230.767 143.975L230.264 143.772L230.147 143.283C229.368 140.024 228.24 134.792 228.228 134.74L227.988 133.622L229.236 133.564C229.382 133.554 230.772 133.426 231.198 132.166L231.551 131.112L232.66 131.548C241.41 134.988 262.242 131.021 266.551 129.403L267.324 129.114L267.827 129.722C267.874 129.776 269.147 131.221 271.659 131.048L272.448 130.993L277.031 141.358L276.271 141.799C276.252 141.811 274.026 143.142 273.602 145.1L273.487 145.633L272.934 145.83C263.406 149.232 255.17 150.213 248.844 150.213Z" fill="#40BB6A"/>
<path d="M252.86 137.501C252.715 137.501 252.583 137.507 252.471 137.514C250.673 137.64 249.107 138.589 248.901 139.672C248.707 140.708 248.933 141.632 249.555 142.343C250.171 143.05 251.148 143.485 252.232 143.54C253.767 143.613 254.944 143.215 255.641 142.381C256.303 141.588 256.456 140.461 256.052 139.367C255.457 137.757 253.832 137.501 252.86 137.501ZM252.588 145.525C252.432 145.525 252.275 145.521 252.113 145.512C250.412 145.427 248.861 144.721 247.861 143.575C246.857 142.426 246.469 140.922 246.768 139.337C247.193 137.074 249.875 135.716 252.303 135.545C255.085 135.349 257.305 136.57 258.105 138.736C258.737 140.453 258.461 142.262 257.365 143.577C256.311 144.842 254.625 145.525 252.588 145.525Z" fill="#40BB6A"/>
<path d="M309.323 100.167C294.189 102.213 269.045 103.759 259.37 96.6979C259.183 108.551 262.263 119.907 262.263 119.907C275.371 127.592 298.401 124.962 314.195 122.238C312.054 112.662 309.323 100.167 309.323 100.167Z" fill="white"/>
<path d="M263.215 119.286C275.739 126.319 297.95 123.419 312.907 121.412C311.165 113.616 309.105 104.214 308.463 101.28C298.839 102.523 272.417 105.154 260.45 98.5806C260.571 108.285 262.723 117.339 263.215 119.286ZM286.067 125.717C276.935 125.717 268.121 124.515 261.678 120.738L261.315 120.526L261.211 120.144C261.181 120.029 258.101 108.526 258.287 96.6841L258.319 94.6661L260.046 95.9263C270.666 103.679 300.327 100.385 309.165 99.19L310.185 99.0525L310.386 99.9746C310.413 100.1 313.139 112.577 315.257 122.04L315.486 123.061L313.667 123.307C305.739 124.373 295.726 125.717 286.067 125.717" fill="#40BB6A"/>
<path d="M270.163 117.995C272.572 118.594 284.536 121.132 304.414 118.222C305.344 116.692 306.935 115.745 307.91 115.281L306.358 107.212C304.284 106.749 303.075 105.606 302.484 104.869C296.354 105.788 283.019 106.625 267.934 104.498C267.182 105.575 265.98 106.099 265.102 106.348C265.342 107.901 265.851 111.144 266.27 113.567C268.362 114.773 269.671 117.023 270.163 117.995ZM286.366 121.588C275.319 121.588 269.388 119.859 269.031 119.752L268.547 119.606L268.362 119.172C268.35 119.142 267.028 116.113 264.788 115.069L264.3 114.84L264.212 114.345C263.632 111.054 262.826 105.772 262.818 105.718L262.662 104.693L263.791 104.598C263.803 104.597 265.77 104.396 266.307 103.068L266.616 102.306L267.495 102.435C283.238 104.752 297.107 103.762 302.82 102.812L303.642 102.675L303.996 103.366C304.028 103.427 304.944 105.081 307.44 105.391L308.224 105.488L310.342 116.495L309.498 116.782C309.475 116.79 306.995 117.667 306.135 119.504L305.9 120.002L305.314 120.09C297.898 121.206 291.566 121.588 286.366 121.588Z" fill="#40BB6A"/>
<path d="M286.39 109.764C284.867 109.764 283.502 110.356 283.115 111.24C282.688 112.217 282.696 113.163 283.143 113.978C283.584 114.785 284.44 115.396 285.49 115.657C286.971 116.023 288.215 115.855 289.087 115.169C289.916 114.519 290.323 113.446 290.178 112.299C289.923 110.303 287.755 109.888 287.098 109.807C286.86 109.779 286.623 109.764 286.39 109.764ZM286.926 117.818C286.286 117.818 285.615 117.734 284.922 117.563C283.278 117.155 281.923 116.171 281.206 114.86C280.486 113.545 280.45 112 281.103 110.508C282.035 108.374 284.97 107.555 287.383 107.85C290.146 108.184 292.04 109.802 292.328 112.072C292.558 113.872 291.874 115.59 290.502 116.668C289.531 117.429 288.302 117.818 286.926 117.818Z" fill="#40BB6A"/>
<path d="M260.843 149.83C256.082 163.095 243.062 181.215 231.148 184.321C241.632 191.324 253.563 195.609 253.563 195.609C268.023 190.309 281.522 170.412 284.659 155.721C274.315 153.19 260.843 149.83 260.843 149.83Z" fill="white"/>
<path d="M233.469 184.618C242.203 190.14 251.539 193.782 253.56 194.544C267.229 189.263 280.009 170.575 283.392 156.435C274.943 154.365 264.716 151.82 261.543 151.031C257.004 162.931 245.323 180.044 233.469 184.618ZM253.568 196.674L253.167 196.53C253.047 196.488 240.984 192.118 230.508 185.12L228.723 183.928L230.851 183.375C236.039 182.021 242.06 177.378 247.808 170.299C252.913 164.01 257.401 156.243 259.815 149.524L260.135 148.631L261.129 148.879C261.264 148.912 274.717 152.265 284.941 154.769L285.916 155.007L285.723 155.911C284.115 163.441 279.935 172.127 274.252 179.745C268.063 188.041 260.86 194.001 253.968 196.528L253.568 196.674Z" fill="#40BB6A"/>
<path d="M243.133 185.667C244.676 186.395 247.832 187.878 250.216 188.959C252.549 188.083 255.381 188.442 256.493 188.638C258.623 187.338 270.177 179.619 276.346 161.909C275.264 160.464 275.049 158.744 275.026 157.743L266.422 155.4C265.032 156.895 263.36 157.367 262.376 157.516C260.517 162.311 251.921 178.05 243.165 183.089C243.549 184.084 243.383 185.006 243.133 185.667ZM250.215 191.162L249.721 190.941C246.443 189.464 241.257 187.007 241.205 186.981L240.097 186.456L240.824 185.53C240.907 185.418 241.664 184.348 240.849 183.26L240.168 182.349L241.232 181.831C249.635 177.735 259.224 160.402 260.527 156.32L260.76 155.587L261.596 155.608C261.667 155.607 263.7 155.602 265.121 153.702L265.567 153.106L277.304 156.299L277.209 157.117C277.208 157.138 276.958 159.555 278.374 161.078L278.758 161.492L278.582 162.01C271.593 182.612 257.835 190.227 257.253 190.541L256.869 190.747L256.437 190.648C256.404 190.64 252.933 189.869 250.701 190.93L250.215 191.162Z" fill="#40BB6A"/>
<path d="M261.505 169.852C259.999 169.852 259.005 171.006 258.698 171.421C257.686 172.782 257.521 174.491 258.321 175.311C259.087 176.097 260.019 176.512 261.018 176.512H261.019C262.007 176.512 262.987 176.087 263.711 175.347C264.734 174.301 265.126 173.211 264.845 172.194C264.578 171.227 263.707 170.416 262.518 170.022C262.158 169.903 261.821 169.852 261.505 169.852ZM261.019 178.488H261.017C259.407 178.487 257.874 177.825 256.702 176.625C255.03 174.911 255.537 172.152 256.905 170.311C258.469 168.207 260.902 167.385 263.255 168.163H263.257C265.123 168.782 266.502 170.108 266.945 171.71C267.403 173.37 266.829 175.128 265.327 176.664C264.195 177.823 262.623 178.488 261.019 178.488Z" fill="#78CEA8"/>
<path d="M324.012 180.043C314.785 173.157 294.975 153.732 292.233 149.549C284.021 160.872 275.689 167.706 275.689 167.706C282.713 177.327 306.604 195.172 309.451 196.814C311.803 194.23 324.012 180.043 324.012 180.043Z" fill="white"/>
<path d="M277.11 167.844C284.178 176.901 304.493 192.261 309.25 195.477C312.103 192.26 320.161 182.915 322.511 180.185C313.802 173.455 297.03 157.211 292.243 151.306C285.703 160.063 279.203 166.013 277.11 167.844ZM309.678 198.113L308.873 197.649C306.157 196.082 282.094 178.26 274.789 168.253L274.269 167.542L274.966 166.97C275.047 166.903 283.299 160.078 291.33 149.002L292.279 147.692L293.163 149.04C295.721 152.943 315.33 172.285 324.698 179.277L325.521 179.89L324.863 180.651C324.365 181.232 312.618 194.879 310.285 197.444L309.678 198.113Z" fill="#40BB6A"/>
<path d="M308.211 188.492C309.239 188.492 310.225 188.627 310.994 188.809C311.817 187.858 312.631 186.886 313.423 185.941C314.175 185.045 314.947 184.122 315.723 183.224C314.929 181.659 314.63 180.08 314.781 178.233C308.822 173.074 301.573 166.203 295.619 160.078C293.474 160.721 291.402 160.01 290.183 159.412C288.261 161.553 286.134 163.874 284.163 165.743C284.723 167.376 284.694 168.726 284.066 170.483C291.498 177.853 301.986 185.95 305.758 188.802C306.541 188.578 307.39 188.492 308.211 188.492ZM311.733 191.133L310.995 190.876C309.831 190.472 307.449 190.23 305.998 190.829L305.383 191.082L304.863 190.691C300.554 187.452 289.701 179.085 282.027 171.379L281.583 170.933L281.814 170.369C282.643 168.343 282.505 167.292 281.906 165.835L281.665 165.243L282.151 164.795C284.282 162.829 286.75 160.126 289.101 157.497L289.734 156.789L290.557 157.309C291.009 157.594 293.369 158.97 295.429 158.015L296.178 157.67L296.733 158.244C302.863 164.589 310.497 171.824 316.65 177.128L317.042 177.465L316.983 177.954C316.754 179.858 317.046 181.331 317.955 182.877L318.293 183.451L317.847 183.959C316.939 184.998 316.026 186.087 315.145 187.142C314.198 188.269 313.221 189.437 312.226 190.571L311.733 191.133Z" fill="#40BB6A"/>
<path d="M298.296 170.518C298.155 170.518 298.013 170.525 297.872 170.541C296.949 170.64 296.143 171.055 295.599 171.713C295.055 172.37 294.836 173.192 294.984 174.029C295.135 174.881 295.644 175.645 296.419 176.178C297.195 176.712 298.139 176.951 299.077 176.849C299.999 176.749 300.807 176.332 301.351 175.675C302.484 174.305 302.115 172.303 300.529 171.211C299.872 170.757 299.092 170.518 298.296 170.518ZM298.651 178.848C297.385 178.848 296.152 178.469 295.113 177.754C293.891 176.912 293.085 175.701 292.845 174.344C292.603 172.971 292.967 171.614 293.871 170.522C294.772 169.431 296.103 168.742 297.617 168.577C299.112 168.417 300.611 168.791 301.835 169.633C304.373 171.382 304.932 174.627 303.079 176.866C302.176 177.957 300.845 178.648 299.331 178.811C299.103 178.835 298.877 178.848 298.651 178.848Z" fill="#40BB6A"/>
<path d="M42.7607 162.933C53.1194 157.549 76.2087 141.417 79.6767 137.71C85.7007 150.127 92.6647 158.134 92.6647 158.134C83.9767 166.549 57.1541 180.501 54.0474 181.688C52.2021 178.78 42.7607 162.933 42.7607 162.933Z" fill="white"/>
<path d="M44.2156 163.302C46.0329 166.349 52.2649 176.791 54.4902 180.398C59.7702 177.953 82.6116 165.904 91.2396 158.052C89.5102 155.928 84.1889 149.07 79.3476 139.44C73.5449 144.53 54.0356 157.992 44.2156 163.302ZM53.5862 182.932L53.1102 182.181C51.2796 179.295 42.1956 164.05 41.8102 163.402L41.3022 162.551L42.2262 162.072C52.7436 156.606 75.6182 140.524 78.8542 137.066L79.9716 135.87L80.6689 137.307C86.5596 149.452 93.4449 157.439 93.5142 157.518L94.0942 158.187L93.4542 158.81C84.4169 167.562 57.4289 181.466 54.4649 182.596L53.5862 182.932Z" fill="#40BB6A"/>
<path d="M54.8872 173.524C56.2125 173.524 57.8298 173.733 59.1552 174.348C63.3978 172.111 75.2205 165.726 83.8978 159.593C83.5992 157.764 83.8178 156.428 84.6698 154.902C83.0685 152.76 81.3965 150.147 79.8938 147.744C78.5818 148.149 76.4098 148.533 74.4125 147.572C67.4205 152.704 59.0152 158.373 52.1952 162.553C52.0032 164.396 51.4205 165.906 50.3525 167.328C50.9538 168.334 51.5458 169.361 52.1232 170.36C52.7298 171.412 53.3552 172.493 53.9925 173.557C54.2685 173.536 54.5698 173.524 54.8872 173.524ZM59.1072 176.652L58.5485 176.309C57.2272 175.498 54.8338 175.374 53.6125 175.594L52.8392 175.734L52.4552 175.106C51.6818 173.838 50.9312 172.537 50.2058 171.281C49.5285 170.107 48.8285 168.894 48.1232 167.731L47.7778 167.162L48.2152 166.647C49.3952 165.262 49.9512 163.854 50.0752 161.941L50.1058 161.451L50.5538 161.178C57.5925 156.886 66.4432 150.915 73.6498 145.594L74.3032 145.114L74.9752 145.569C76.8325 146.824 79.4125 145.825 79.9112 145.614L80.8165 145.226L81.3098 146.021C83.1458 148.97 85.0845 152.012 86.8258 154.275L87.2245 154.792L86.8765 155.338C86.0205 156.683 85.6925 157.698 86.1365 159.822L86.2618 160.414L85.7432 160.785C76.7658 167.214 64.5338 173.808 59.6925 176.346L59.1072 176.652Z" fill="#40BB6A"/>
<path d="M67.0319 156.925H67.0359H67.0319ZM69.2572 157.411C68.6679 157.411 68.0772 157.544 67.5319 157.802C66.6705 158.21 66.0279 158.884 65.7239 159.7C65.4252 160.502 65.4892 161.348 65.9052 162.077C66.3212 162.81 67.0412 163.342 67.9319 163.582C68.8385 163.825 69.8132 163.734 70.6745 163.325C71.5372 162.917 72.1785 162.242 72.4839 161.425C72.7812 160.624 72.7172 159.78 72.3012 159.048C71.8852 158.319 71.1665 157.783 70.2759 157.545C69.9425 157.456 69.5999 157.411 69.2572 157.411V157.411ZM68.9505 165.691C68.4025 165.691 67.8559 165.62 67.3212 165.477C65.8585 165.086 64.6732 164.201 63.9825 162.988C63.2919 161.776 63.1812 160.383 63.6719 159.065C64.1572 157.763 65.1732 156.692 66.5332 156.048C67.8932 155.403 69.4399 155.262 70.8852 155.649C72.3465 156.04 73.5332 156.925 74.2239 158.137C74.9132 159.35 75.0239 160.744 74.5345 162.062C74.0492 163.363 73.0332 164.435 71.6719 165.078C70.8159 165.485 69.8852 165.691 68.9505 165.691" fill="#40BB6A"/>
<path d="M73.1578 188.974C58.0445 191.144 34.4338 188.817 25.9792 180.554C23.9165 192.257 25.1672 203.901 25.1672 203.901C36.9205 213.232 62.4845 215.141 78.2512 211.002C76.0138 201.447 73.1578 188.974 73.1578 188.974Z" fill="white"/>
<path d="M26.2074 203.41C37.582 212.11 61.6394 213.984 76.9794 210.295C75.154 202.488 72.9807 193.023 72.3074 190.087C58.626 191.818 36.6074 190.118 26.7474 182.572C25.3327 192.186 26.0287 201.422 26.2074 203.41ZM60.3487 214.066C56.9514 214.066 53.49 213.874 50.0687 213.481C39.1554 212.232 30.0594 209.094 24.4567 204.645L24.1314 204.387L24.0887 203.994C24.0767 203.878 22.8487 192.089 24.91 180.395L25.2607 178.402L26.7714 179.877C30.4527 183.475 37.726 186.254 47.2487 187.7C55.7127 188.986 65.3354 189.097 72.99 187.997L74.0087 187.851L74.2194 188.771C74.246 188.895 77.098 201.351 79.31 210.794L79.5207 211.697L78.5514 211.951C73.2287 213.347 66.906 214.066 60.3487 214.066Z" fill="#40BB6A"/>
<path d="M33.3043 203.105C35.5443 204.245 48.3363 210.118 68.4296 207.066C69.3456 205.529 70.9269 204.57 71.8949 204.097L70.2629 196.04C68.1723 195.592 66.9496 194.449 66.3563 193.717C60.8309 194.39 41.5563 194.572 32.6549 189.754C31.8563 190.518 30.8816 190.804 30.1229 190.901C30.1149 192.486 30.1043 195.725 30.1349 198.155C32.0523 199.651 32.9896 202.114 33.3043 203.105ZM56.9763 209.93C41.2683 209.93 32.2563 204.855 31.7949 204.59L31.4176 204.372L31.3189 203.975C31.3109 203.945 30.4829 200.774 28.4323 199.445L27.9843 199.155L27.9763 198.653C27.9243 195.319 27.9616 189.986 27.9629 189.933L27.9709 188.793L29.2056 188.962C29.3509 188.979 30.7416 189.108 31.4323 187.95L32.0109 186.983L33.0016 187.612C40.8243 192.572 62.1043 192.473 66.6816 191.671L67.5029 191.526L67.8629 192.215C67.8976 192.277 68.8283 193.921 71.3283 194.211L72.1136 194.302L74.3389 205.29L73.4989 205.585C73.4763 205.593 71.0056 206.492 70.1616 208.335L69.9336 208.835L69.3483 208.927C64.8603 209.641 60.7269 209.93 56.9763 209.93Z" fill="#40BB6A"/>
<path d="M50.4537 197.021C48.9123 197.021 47.5257 197.627 47.1443 198.523C46.7257 199.504 46.7457 200.45 47.2003 201.26C47.6483 202.065 48.511 202.669 49.563 202.921C51.0483 203.275 52.291 203.095 53.1563 202.404C53.9777 201.747 54.3737 200.672 54.2163 199.526C53.951 197.586 51.9577 197.154 51.1123 197.059C50.891 197.033 50.671 197.021 50.4537 197.021ZM50.9603 205.07C50.3377 205.07 49.687 204.992 49.015 204.832C47.3657 204.439 46.0017 203.465 45.271 202.161C44.5377 200.852 44.4857 199.307 45.1257 197.808C46.0363 195.668 48.9603 194.822 51.3777 195.098C54.1443 195.409 56.055 197.011 56.367 199.279C56.6123 201.077 55.9457 202.8 54.5843 203.889C53.6083 204.67 52.3603 205.07 50.9603 205.07Z" fill="#40BB6A"/>
<path d="M133.856 127.817C124.58 138.917 105.754 152.125 93.3838 151.487C100.762 161.243 110.488 168.869 110.488 168.869C126.052 168.2 145.97 153.456 154.226 140.523C145.369 135.029 133.856 127.817 133.856 127.817Z" fill="white"/>
<path d="M95.4705 152.463C101.728 160.296 109.233 166.536 110.869 167.862C125.681 166.975 144.485 153.156 152.775 140.817C145.54 136.327 136.796 130.857 134.085 129.161C125.511 139.038 108.313 151.698 95.4705 152.463ZM110.109 169.875L109.781 169.62C109.684 169.543 99.8652 161.799 92.4945 152.049L91.2358 150.388L93.4452 150.502C98.8332 150.782 106.193 148.201 114.171 143.239C121.26 138.83 128.296 132.842 132.996 127.219L133.62 126.473L134.469 127.004C134.584 127.076 146.081 134.277 154.836 139.707L155.671 140.224L155.164 141.021C150.932 147.65 143.853 154.6 135.743 160.09C126.909 166.07 117.957 169.538 110.539 169.858L110.109 169.875Z" fill="#40BB6A"/>
<path d="M110.103 161.574C112.494 161.574 114.837 162.67 115.766 163.163C118.246 162.573 131.939 158.75 144.147 143.872C143.643 142.184 144.061 140.495 144.402 139.542L137.119 134.75C135.267 135.745 133.519 135.69 132.534 135.535C129.051 139.505 115.263 151.792 105.179 153.926C105.182 154.98 104.693 155.802 104.219 156.351C105.413 157.501 107.861 159.847 109.723 161.584C109.85 161.578 109.977 161.574 110.103 161.574ZM115.362 165.268L114.989 165.045C114.961 165.027 111.959 163.259 109.47 163.591L108.927 163.664L108.542 163.307C105.977 160.93 101.965 157.053 101.923 157.014L101.067 156.184L102.087 155.528C102.206 155.449 103.307 154.665 102.93 153.392L102.614 152.328L103.806 152.158C113.218 150.809 128.519 137.316 131.219 133.851L131.703 133.229L132.485 133.499C132.557 133.521 134.475 134.124 136.502 132.756L137.137 132.327L147.073 138.862L146.687 139.606C146.679 139.625 145.574 141.833 146.361 143.698L146.575 144.203L146.222 144.638C132.198 162 116.462 165.066 115.798 165.187L115.362 165.268Z" fill="#40BB6A"/>
<path d="M126.364 146.777C125.358 146.777 124.485 147.266 124.052 147.563C122.605 148.545 121.833 150.109 122.293 151.123C122.734 152.094 123.465 152.767 124.408 153.066C125.341 153.363 126.422 153.257 127.373 152.775C128.714 152.094 129.477 151.182 129.578 150.136C129.673 149.143 129.145 148.116 128.164 147.387C127.558 146.938 126.94 146.777 126.364 146.777ZM125.498 155.207C124.884 155.207 124.274 155.116 123.696 154.932C122.174 154.449 120.966 153.364 120.292 151.879C119.33 149.759 120.804 147.305 122.757 145.978C124.993 144.459 127.588 144.412 129.53 145.854C131.07 146.999 131.894 148.664 131.736 150.308C131.57 152.014 130.394 153.502 128.425 154.503C127.504 154.969 126.494 155.207 125.498 155.207Z" fill="#40BB6A"/>
<path d="M124.908 164.494C109.906 167.239 89.5998 164.66 77.2905 158.493C75.7678 170.265 77.6425 181.239 77.6425 181.239C89.8132 190.114 115.442 191.044 131.005 186.309C128.33 176.846 124.908 164.494 124.908 164.494Z" fill="white"/>
<path d="M78.6528 180.706C90.4141 188.969 114.542 189.925 129.702 185.653C127.519 177.921 124.914 168.545 124.107 165.638C109.197 168.061 89.0821 164.817 78.1995 160.025C77.1541 169.777 78.3621 178.774 78.6528 180.706ZM109.802 190.121C107.527 190.121 105.238 190.036 102.961 189.863C91.9995 189.031 82.7675 186.242 76.9648 182.01L76.6368 181.77L76.5715 181.391C76.5528 181.28 74.6915 170.148 76.2155 158.379L76.4035 156.936L77.8048 157.624C87.9581 162.617 109.713 166.269 124.694 163.526L125.705 163.342L125.958 164.254C125.991 164.376 129.41 176.711 132.054 186.063L132.306 186.956L131.347 187.247C125.177 189.125 117.583 190.121 109.802 190.121Z" fill="#40BB6A"/>
<path d="M85.7362 180.132C88.0255 181.184 101.075 186.563 121.012 182.748C121.856 181.177 123.392 180.159 124.337 179.65L122.337 171.663C120.216 171.292 118.94 170.187 118.319 169.479C112.879 170.18 95.1362 169.09 84.6775 166.01C83.8615 167.01 82.7548 167.561 81.9882 167.843C82.0482 169.332 82.1935 172.763 82.3428 175.305C84.3255 176.727 85.3748 179.153 85.7362 180.132ZM106.967 186.1C92.9362 186.1 84.7402 181.905 84.2962 181.672L83.9095 181.469L83.7908 181.076C83.7815 181.047 82.8108 177.909 80.7002 176.66L80.2388 176.386L80.2082 175.886C80.0028 172.556 79.7975 167.228 79.7948 167.174L79.7642 166.345L80.6522 166.172C80.6642 166.17 82.4855 165.783 83.2362 164.389L83.6588 163.604L84.5642 163.89C94.7188 167.111 114.284 168.352 118.56 167.433L119.375 167.258L119.764 167.932C119.803 167.993 120.808 169.601 123.319 169.795L124.107 169.855L126.835 180.75L126.008 181.075C125.987 181.084 123.559 182.077 122.801 183.95L122.596 184.459L122.015 184.573C116.453 185.679 111.417 186.1 106.967 186.1Z" fill="#40BB6A"/>
<path d="M102.815 173.394C101.183 173.394 99.7101 174.071 99.3528 175.026C98.9808 176.021 99.0434 176.966 99.5341 177.759C100.019 178.544 100.907 179.115 101.97 179.326C103.471 179.624 104.705 179.399 105.538 178.674C106.329 177.985 106.675 176.895 106.465 175.757C106.101 173.774 103.913 173.46 103.25 173.411C103.105 173.4 102.958 173.394 102.815 173.394ZM103.179 181.428C102.645 181.428 102.086 181.372 101.51 181.257C99.8448 180.927 98.4381 180.006 97.6488 178.731C96.8568 177.451 96.7328 175.909 97.3021 174.387C98.1154 172.214 101.001 171.258 103.426 171.442C106.205 171.648 108.186 173.175 108.602 175.429C108.93 177.216 108.343 178.963 107.033 180.104C106.029 180.975 104.697 181.428 103.179 181.428Z" fill="#40BB6A"/>
<path d="M210.409 98.4195C198.379 107.043 176.524 115.524 164.724 112.075C169.185 123.208 176.503 132.814 176.503 132.814C191.755 135.728 215.089 126.012 226.637 115.379C219.572 108.035 210.409 98.4195 210.409 98.4195Z" fill="white"/>
<path d="M177.15 131.927C191.736 134.458 213.733 125.381 225.149 115.332C219.381 109.331 212.42 102.036 210.262 99.7726C199.246 107.373 179.12 115.695 166.476 113.496C170.382 122.513 175.932 130.27 177.15 131.927ZM182.404 134.324C180.225 134.324 178.174 134.144 176.282 133.783L175.86 133.703L175.614 133.38C175.541 133.283 168.165 123.539 163.708 112.416L162.948 110.52L165.056 111.135C170.193 112.639 178.026 111.825 187.114 108.846C195.188 106.2 203.646 102.012 209.74 97.6438L210.55 97.0636L211.226 97.7728C211.318 97.8689 220.468 107.471 227.452 114.73L228.118 115.422L227.405 116.078C221.488 121.525 212.725 126.634 203.365 130.093C195.824 132.88 188.597 134.324 182.404 134.324Z" fill="#40BB6A"/>
<path d="M177.766 125.587C180.239 126.041 182.377 127.774 183.182 128.499C185.745 128.497 200.051 127.926 215.959 116.318C215.935 114.568 216.802 113.028 217.395 112.183L211.662 105.879C209.597 106.417 207.918 105.965 207.009 105.59C202.607 108.594 186.274 117.139 175.899 117.139C175.754 117.139 175.614 117.138 175.471 117.134C175.183 118.157 174.486 118.84 173.875 119.263C174.717 120.649 176.441 123.482 177.766 125.587ZM183.339 130.479C182.959 130.479 182.727 130.47 182.657 130.466L182.211 130.444L181.913 130.142C181.89 130.12 179.471 127.72 176.97 127.473L176.423 127.419L176.149 126.985C174.319 124.097 171.501 119.427 171.473 119.379L170.87 118.381L172.038 117.978C172.175 117.929 173.458 117.423 173.441 116.104L173.427 115.002L174.629 115.11C184.109 115.959 202.63 106.396 206.198 103.659L206.838 103.167L207.519 103.607C207.582 103.646 209.277 104.667 211.613 103.807L212.347 103.537L220.167 112.137L219.59 112.768C219.575 112.785 217.899 114.67 218.149 116.654L218.217 117.193L217.755 117.534C201.294 129.734 186.659 130.479 183.339 130.479Z" fill="#40BB6A"/>
<path d="M197.149 114.984C196.423 114.984 195.785 115.183 195.491 115.293C193.82 115.913 192.643 117.25 192.811 118.339C192.969 119.379 193.493 120.196 194.324 120.702C195.145 121.202 196.221 121.347 197.273 121.097C198.759 120.746 199.748 120.037 200.133 119.048C200.499 118.109 200.269 116.993 199.519 116.063C198.84 115.218 197.941 114.984 197.149 114.984ZM196.261 123.193C195.131 123.193 194.037 122.904 193.121 122.346C191.781 121.529 190.909 120.203 190.665 118.611C190.316 116.338 192.417 114.3 194.673 113.462C197.256 112.503 199.78 113.052 201.264 114.892C202.44 116.351 202.781 118.151 202.175 119.709C201.547 121.321 200 122.494 197.817 123.011C197.3 123.133 196.777 123.193 196.261 123.193" fill="#40BB6A"/>
<path d="M170.676 75.6261C163.812 88.1006 149.082 101.112 136.178 106.163C145.407 114.507 156.038 119.914 156.038 119.914C171.198 116.63 187.782 98.7761 193.272 84.6727C183.454 80.7704 170.676 75.6261 170.676 75.6261Z" fill="white"/>
<path d="M138.059 106.453C145.845 113.215 154.354 117.881 156.199 118.86C170.578 115.493 186.258 98.7345 191.903 85.2065C183.881 82.0146 174.178 78.1147 171.171 76.9056C164.083 89.1186 148.898 101.581 138.059 106.453ZM155.878 120.965L155.511 120.778C155.403 120.723 144.642 115.207 135.415 106.866L134.283 105.842L135.743 105.259C146.305 101.034 162.853 87.643 169.709 75.1831L170.171 74.3437L171.114 74.7221C171.242 74.7731 184.001 79.9102 193.705 83.7675L194.631 84.1348L194.293 85.0034C191.478 92.2326 185.931 100.257 179.077 107.022C171.607 114.389 163.515 119.309 156.289 120.875L155.878 120.965Z" fill="#40BB6A"/>
<path d="M155.718 112.687C157.555 112.687 159.274 113.161 160.067 113.417C162.386 112.418 175.067 106.349 184.046 89.667C183.209 88.0929 183.275 86.3619 183.417 85.3693L175.289 81.8891C173.662 83.1858 171.921 83.423 170.926 83.434C168.185 87.7754 156.318 99.8607 147.218 105.482C147.579 106.685 147.374 107.82 147.147 108.546C148.47 109.418 151.523 111.427 153.809 112.885C154.438 112.744 155.085 112.687 155.718 112.687ZM160.097 115.553L159.686 115.397C159.654 115.385 156.347 114.151 153.969 114.9L153.449 115.063L152.997 114.777C149.995 112.874 145.265 109.742 145.218 109.71L144.482 109.222L144.881 108.477C144.886 108.466 145.673 106.92 144.93 105.521L144.514 104.734L145.318 104.259C154.353 98.9411 167.469 85.6418 169.307 82.001L169.658 81.3089L170.481 81.4415C170.555 81.4524 172.565 81.72 174.278 80.0328L174.815 79.5049L185.905 84.2502L185.678 85.0445C185.671 85.0664 185.034 87.4227 186.186 89.1208L186.498 89.5818L186.241 90.0696C175.979 109.499 161.137 115.168 160.511 115.399L160.097 115.553Z" fill="#40BB6A"/>
<path d="M167.662 95.4805C166.429 95.4805 165.471 96.2639 165.045 96.686C163.823 97.8951 163.382 99.5628 164.041 100.482C164.671 101.363 165.525 101.9 166.513 102.036C167.49 102.17 168.53 101.883 169.366 101.248C170.547 100.352 171.111 99.3268 170.999 98.2831C170.891 97.2905 170.163 96.3697 169.051 95.8199C168.562 95.5778 168.094 95.4805 167.662 95.4805ZM166.989 104.043C166.722 104.043 166.455 104.025 166.19 103.989C164.598 103.77 163.19 102.909 162.227 101.564C160.851 99.6419 161.801 96.9816 163.453 95.3479C165.341 93.4782 167.881 92.9929 170.083 94.0828C171.829 94.9465 172.977 96.4439 173.154 98.0885C173.338 99.7903 172.485 101.452 170.751 102.767C169.659 103.597 168.322 104.043 166.989 104.043Z" fill="#40BB6A"/>
<path d="M58.2753 81.0075C58.2753 69.9951 48.4913 61.0689 36.4206 61.0689C24.3499 61.0689 14.5659 69.9951 14.5659 81.0075C14.5659 92.0198 24.3499 100.947 36.4206 100.947C48.4913 100.947 58.2753 92.0198 58.2753 81.0075Z" fill="white"/>
<path d="M36.4204 64.9047C26.6884 64.9047 18.7697 72.1291 18.7697 81.0079C18.7697 89.8879 26.6884 97.1135 36.4204 97.1135C46.1537 97.1135 54.0724 89.8879 54.0724 81.0079C54.0724 72.1291 46.1537 64.9047 36.4204 64.9047ZM36.4204 98.4297C25.8924 98.4297 17.3257 90.6153 17.3257 81.0079C17.3257 71.4029 25.8924 63.5873 36.4204 63.5873C46.9497 63.5873 55.5164 71.4029 55.5164 81.0079C55.5164 90.6153 46.9497 98.4297 36.4204 98.4297Z" fill="#343334"/>
<path d="M200.477 32.6201C200.477 24.0892 192.896 17.1738 183.546 17.1738C174.196 17.1738 166.616 24.0892 166.616 32.6201C166.616 41.1522 174.196 48.0664 183.546 48.0664C192.896 48.0664 200.477 41.1522 200.477 32.6201Z" fill="#56B38E"/>
<path d="M183.546 20.2935C176.095 20.2935 170.034 25.8234 170.034 32.6209C170.034 39.4183 176.095 44.9482 183.546 44.9482C190.997 44.9482 197.058 39.4183 197.058 32.6209C197.058 25.8234 190.997 20.2935 183.546 20.2935ZM183.546 46.2656C175.299 46.2656 168.59 40.1445 168.59 32.6209C168.59 25.0972 175.299 18.9761 183.546 18.9761C191.793 18.9761 198.502 25.0972 198.502 32.6209C198.502 40.1445 191.793 46.2656 183.546 46.2656Z" fill="white"/>
<path d="M129.761 67.1582C129.033 67.1582 128.442 66.6169 128.442 65.9515C128.442 65.2873 129.033 64.7472 129.761 64.7472C130.489 64.7472 131.081 65.2873 131.081 65.9515C131.081 66.6169 130.489 67.1582 129.761 67.1582Z" fill="#5B57B0"/>
<path d="M143.916 67.1582C143.188 67.1582 142.597 66.6169 142.597 65.9515C142.597 65.2873 143.188 64.7472 143.916 64.7472C144.644 64.7472 145.235 65.2873 145.235 65.9515C145.235 66.6169 144.644 67.1582 143.916 67.1582Z" fill="#5B57B0"/>
<path d="M158.071 67.1582C157.343 67.1582 156.751 66.6169 156.751 65.9515C156.751 65.2873 157.343 64.7472 158.071 64.7472C158.799 64.7472 159.39 65.2873 159.39 65.9515C159.39 66.6169 158.799 67.1582 158.071 67.1582Z" fill="#5B57B0"/>
<path d="M27.617 119.746C26.7343 119.746 25.9797 120.128 25.321 120.909C24.673 121.675 24.6037 122.461 25.113 123.248C26.1957 124.915 29.657 126.257 34.5183 126.085C33.109 122.792 30.401 120.114 28.0943 119.78C27.9303 119.758 27.7717 119.746 27.617 119.746ZM6.75565 127.954C5.44099 127.954 4.03966 128.505 2.73566 130.094C1.18766 131.98 1.54632 133.725 3.83299 135.433C6.56099 137.472 11.6277 139.024 17.0837 139.54C16.1557 135.262 13.3117 130.91 9.97699 128.943C9.05966 128.401 7.94232 127.954 6.75565 127.954V127.954ZM17.0757 148.01C16.9277 148.01 16.7783 147.977 16.6397 147.906C16.2037 147.687 16.045 147.186 16.285 146.787C17.241 145.211 17.5397 143.261 17.3477 141.218C11.3863 140.71 5.74899 138.992 2.68899 136.707C-0.320343 134.46 -0.829677 131.688 1.29166 129.105C3.83966 126.003 7.36366 125.44 10.957 127.56C13.8997 129.295 16.5503 132.638 18.0463 136.5C18.4623 137.574 18.7677 138.638 18.961 139.677C25.5077 140.002 30.8703 138.71 33.3103 136.218C36.037 133.431 35.689 129.891 35.0877 127.712C29.0023 128.061 24.969 126.255 23.561 124.086C22.6757 122.724 22.7957 121.198 23.8917 119.903C25.3823 118.138 27.153 117.977 28.377 118.154C31.477 118.604 34.7677 121.798 36.3783 125.924C36.3823 125.933 36.385 125.94 36.3877 125.947C36.6837 125.914 36.9837 125.877 37.2863 125.833C41.437 125.239 44.729 123.593 47.6503 120.653C47.9863 120.316 48.557 120.291 48.9263 120.596C49.2943 120.902 49.3237 121.422 48.989 121.759C45.7757 124.992 42.1463 126.805 37.5663 127.461C37.345 127.492 37.1263 127.521 36.909 127.547C37.897 131.314 37.1103 134.808 34.6557 137.314C31.8543 140.176 26.2277 141.634 19.1783 141.335C19.3517 143.694 18.913 145.854 17.8663 147.584C17.701 147.855 17.393 148.01 17.0757 148.01Z" fill="#D4D3D2"/>
<path d="M268.397 171.119C269.66 161.344 272.312 151.93 267.913 145.896C258.771 133.356 247.339 141.081 247.424 126.635C247.424 126.635 247.656 123.931 247.712 123.1C247.768 122.272 249.836 121.85 249.836 121.85C277.659 114.223 283.664 96.9836 282.592 80.1396C282.011 70.9774 275.136 59.324 260.045 58.8277C257.083 58.7304 251.996 57.0164 249.036 56.7427C230.491 48.5233 213.404 61.3664 216.177 80.1396C216.177 80.1396 226.481 140.458 229.483 141.386C230.095 141.574 239.751 157.915 237.269 174.036C234.949 189.114 244.703 205.117 257.936 204.812C262.109 204.717 265.755 202.179 267.119 198.58C268.275 195.531 268.98 191.61 268.213 188.188C269.172 189.506 270.2 196.669 269.377 200.451C276.009 193.921 267.996 174.227 268.397 171.119Z" fill="#262628"/>
<path d="M275.501 180.531C275.267 180.531 275.039 180.43 274.901 180.241C271.217 175.242 271.778 170.712 272.555 164.44C272.865 161.933 273.217 159.092 273.347 155.808C273.731 146.084 266.418 140.871 259.446 139.234C252.662 137.642 247.366 135.709 246.021 126.725C245.966 126.365 246.243 126.031 246.638 125.983C247.035 125.932 247.397 126.186 247.451 126.546C248.681 134.754 253.141 136.394 259.806 137.958C269.251 140.175 275.133 147.201 274.79 155.856C274.658 159.19 274.303 162.057 273.989 164.59C273.219 170.803 272.711 174.909 276.098 179.506C276.321 179.807 276.234 180.216 275.903 180.419C275.779 180.496 275.639 180.531 275.501 180.531Z" fill="#262628"/>
<path d="M34.8682 227.55L109.336 189.877L115.959 184.546L165.635 227.812L34.8682 227.55Z" fill="#F03B2B"/>
<path d="M130.59 26.2528C130.59 11.7528 117.707 -0.000356267 101.814 -0.000356267C85.9221 -0.000356267 73.0381 11.7528 73.0381 26.2528C73.0381 40.7527 85.9221 52.5059 101.814 52.5059C117.707 52.5059 130.59 40.7527 130.59 26.2528Z" fill="#FAB80A"/>
<path d="M101.814 4.84042C88.8729 4.84042 78.3435 14.4454 78.3435 26.2533C78.3435 38.0601 88.8729 47.665 101.814 47.665C114.756 47.665 125.285 38.0601 125.285 26.2533C125.285 14.4454 114.756 4.84042 101.814 4.84042ZM101.814 48.9824C88.0769 48.9824 76.9009 38.785 76.9009 26.2533C76.9009 13.7204 88.0769 3.52424 101.814 3.52424C115.553 3.52424 126.729 13.7204 126.729 26.2533C126.729 38.785 115.553 48.9824 101.814 48.9824Z" fill="white"/>
<path d="M119.098 144.248C110.687 143.395 101.494 141.82 98.3805 141.017C93.2018 139.68 88.9938 136.048 89.0458 129.068C89.2178 106.142 89.4978 96.9883 90.3098 70.7656C89.2752 66.5519 88.2352 62.9415 87.3885 59.0416C86.7618 56.1502 85.5565 51.5946 85.7032 48.0086C96.9272 54.9982 108.338 51.7758 110.129 51.2808C113.182 47.6169 111.569 39.6006 117.101 38.7199C121.158 38.0751 121.937 43.7814 120.979 51.5557C120.034 59.2241 116.75 63.4184 113.458 70.9006L120.599 115.911C120.599 115.911 129.394 115.839 132.138 115.782C126.181 120.056 119.686 139.331 119.098 144.248Z" fill="#C06852"/>
<path d="M171.704 130.165C175.77 143.622 175.894 165.288 167.846 173.882C180.825 174.434 193.365 171.99 193.365 171.99C202.206 160.283 201.404 136.893 195.121 123.067C184.965 126.173 171.704 130.165 171.704 130.165Z" fill="white"/>
<path d="M169.284 173.273C180.463 173.564 191.088 171.734 192.932 171.399C201.336 159.973 200.619 137.474 194.707 123.888C186.04 126.537 175.299 129.776 172.578 130.596C176.122 142.918 176.796 163.704 169.284 173.273ZM171.722 174.621C170.43 174.621 169.123 174.597 167.812 174.541L166.34 174.478L167.298 173.455C170.854 169.657 173.09 162.682 173.596 153.813C174.044 145.964 173.076 137.189 171.007 130.34L170.824 129.737L171.478 129.54C171.61 129.501 184.854 125.512 194.891 122.443L195.531 122.249L195.788 122.816C198.99 129.861 200.756 139.162 200.636 148.331C200.504 158.301 198.134 166.837 193.96 172.363L193.798 172.58L193.516 172.635C193.403 172.655 183.171 174.621 171.722 174.621Z" fill="#78CEA8"/>
<path d="M176.66 166.908C177.816 167.589 178.225 168.622 178.369 169.321C179.974 169.163 183.922 168.766 186.757 168.442C188.158 166.439 190.938 165.292 191.857 164.956C192.718 163.127 198.05 150.59 192.238 132.166C190.298 131.512 189.02 130 188.465 129.224L179.393 131.744C179.192 133.877 177.922 135.148 177.232 135.689C178.536 140.253 181.02 158.475 176.66 166.908ZM176.972 170.783L177.002 170.024C177.004 169.961 177.025 168.395 175.424 167.802L174.678 167.526L175.06 166.88C179.629 159.152 177.113 139.723 175.714 135.636L175.549 135.151L176.021 134.881C176.096 134.838 177.938 133.729 177.974 131.241L177.981 130.759L189.16 127.652L189.436 128.139C189.449 128.159 190.772 130.421 193.026 131.018L193.408 131.119L193.52 131.464C200.133 152.038 193.337 165.209 193.045 165.762L192.914 166.005L192.634 166.095C192.6 166.106 189.113 167.251 187.829 169.373L187.652 169.667L187.289 169.709C183.666 170.13 177.858 170.696 177.8 170.702L176.972 170.783Z" fill="#78CEA8"/>
<path d="M185.073 145.188H185.076H185.073ZM186.32 145.71C185.966 145.71 185.605 145.749 185.242 145.828C182.848 146.357 182.637 148.571 182.629 149.237C182.609 151.055 183.602 152.669 184.941 152.992C186.157 153.284 187.288 153.145 188.208 152.588C189.117 152.039 189.737 151.106 189.906 150.031C190.144 148.532 189.769 147.326 188.825 146.542C188.169 145.998 187.277 145.71 186.32 145.71V145.71ZM186.138 154.455C185.626 154.455 185.101 154.392 184.573 154.265C182.318 153.724 181.161 151.318 181.186 149.223C181.212 146.839 182.637 145.048 184.902 144.548C186.717 144.148 188.545 144.529 189.797 145.568C191.093 146.643 191.64 148.295 191.336 150.219C191.106 151.666 190.258 152.93 189.005 153.686C188.162 154.195 187.178 154.455 186.138 154.455Z" fill="#78CEA8"/>
<path d="M115.51 184.908C118.971 180.775 122.078 174.971 131.871 155.962C133.1 153.575 134.308 151.255 135.386 149.292C127.48 147.827 126.3 147.413 118.934 146.028C118.083 138.561 124.802 120.932 132.386 115.321C139.34 115.169 141.675 114.874 148.558 114.734C163.574 114.425 175.46 114.987 181.752 116.591C188.806 118.387 195.168 122.507 203.948 127.349L233.37 143.587C257.315 155.029 254.654 173.658 251.858 184.998C248.814 197.341 242.491 208.737 236.562 218.743C236.562 218.743 236.426 218.439 236.116 217.909C236.116 217.909 235.786 216.922 229.828 215.55C223.872 214.178 198.364 220.326 194.874 221.314C191.384 222.301 183.706 227.875 183.706 227.875L164.491 227.819C164.491 227.819 118.902 187.694 115.51 184.908Z" fill="#5B57B0"/>
<path d="M167.776 186.234C171.222 175.822 183.315 151.692 186.504 147.782C171.894 145.191 161.787 140.781 161.787 140.781C154.73 150.382 145.796 177.347 145.222 180.376C148.739 181.367 167.776 186.234 167.776 186.234Z" fill="white"/>
<path d="M146.498 179.694C150.849 180.87 163.394 184.085 167.055 185.024C170.541 175.107 180.579 154.756 184.726 148.462C173.358 146.3 164.845 143.097 162.19 142.032C155.721 151.453 147.935 174.453 146.498 179.694ZM168.506 187.447L167.483 187.186C166.706 186.986 148.393 182.304 144.902 181.319L143.991 181.062L144.154 180.207C144.702 177.318 153.549 150.217 160.887 140.231L161.409 139.522L162.253 139.89C162.354 139.933 172.421 144.278 186.711 146.812L188.402 147.111L187.374 148.37C184.398 152.02 172.311 175.947 168.813 186.519L168.506 187.447Z" fill="#40BB6A"/>
<path d="M153.918 178.614C155.196 178.943 156.49 179.258 157.748 179.564C158.945 179.856 160.174 180.154 161.385 180.464C162.666 179.196 164.15 178.341 166.077 177.761C169.024 170.767 173.208 162.028 177.134 154.665C175.664 153.1 175.59 151.082 175.73 149.827C172.829 149.026 169.665 148.121 167.016 147.174C165.576 148.272 164.198 148.764 162.177 148.906C157.557 157.989 153.369 169.927 151.924 174.198C153.105 175.49 153.72 177.321 153.918 178.614ZM162.137 182.717L161.45 182.537C160.05 182.168 158.597 181.815 157.192 181.475C155.688 181.109 154.133 180.732 152.606 180.327L151.849 180.125L151.826 179.406C151.79 178.271 151.124 176.169 149.962 175.175L149.472 174.754L149.668 174.166C151.301 169.295 155.622 156.947 160.492 147.53L160.774 146.985L161.433 146.963C163.802 146.888 164.813 146.368 166.06 145.308L166.566 144.877L167.209 145.116C170.013 146.16 173.696 147.207 177.257 148.181L178.216 148.445L178.002 149.338C177.888 149.828 177.394 152.344 179.15 153.716L179.788 154.213L179.418 154.901C175.337 162.498 170.929 171.7 167.913 178.914L167.721 179.373L167.204 179.51C165.186 180.047 163.806 180.856 162.589 182.213L162.137 182.717Z" fill="#40BB6A"/>
<path d="M168.786 163.309H168.789H168.786ZM164.529 159C162.99 159 161.561 160.003 161.135 161.495C160.637 163.249 161.71 165.028 163.531 165.461C165.351 165.891 167.239 164.815 167.738 163.061C168.238 161.307 167.163 159.528 165.343 159.095C165.071 159.031 164.798 159 164.529 159V159ZM164.343 167.531C163.894 167.531 163.439 167.48 162.985 167.373C160.01 166.666 158.239 163.808 159.038 160.999C159.839 158.189 162.913 156.479 165.887 157.183C168.865 157.89 170.634 160.748 169.834 163.557C169.155 165.939 166.845 167.531 164.343 167.531" fill="#40BB6A"/>
<path d="M164.937 193.686C174.126 186.759 197.899 172.482 202.929 170.838C194.717 161.864 187.383 152.559 187.383 152.559C175.679 156.987 152.031 175.179 149.715 177.41C152.041 180.014 164.937 193.686 164.937 193.686Z" fill="white"/>
<path d="M151.188 177.485C154.094 180.656 162.588 189.678 165.07 192.312C174.07 185.714 194.274 173.523 201.176 170.46C194.63 163.228 188.748 155.948 187.016 153.781C176.039 158.299 155.611 173.754 151.188 177.485ZM164.808 195.064L164.115 194.331C163.59 193.773 151.184 180.618 148.876 178.033L148.275 177.36L148.93 176.73C151.294 174.454 174.956 156.191 186.968 151.647L187.762 151.347L188.263 151.983C188.335 152.076 195.668 161.362 203.76 170.204L204.755 171.29L203.295 171.767C198.29 173.405 174.703 187.605 165.626 194.448L164.808 195.064Z" fill="#40BB6A"/>
<path d="M165.606 185.373C166.596 185.373 167.602 185.505 168.667 185.773C175.367 181.437 184.158 176.275 191.896 172.13C191.62 170.083 192.79 168.363 193.67 167.389C193.359 167.038 193.031 166.66 192.69 166.268C191.26 164.623 189.506 162.605 187.772 160.971C185.852 161.304 183.419 161.168 181.887 160.4C174.319 164.887 164.876 171.324 159.046 175.654C159.244 177.326 158.644 179.161 158.026 180.338C158.888 181.259 159.776 182.175 160.638 183.066C161.458 183.912 162.3 184.783 163.119 185.651C163.956 185.465 164.775 185.373 165.606 185.373ZM169.056 187.945L168.543 187.798C166.538 187.225 164.898 187.201 163.06 187.717L162.376 187.908L161.915 187.41C160.972 186.396 159.978 185.368 159.016 184.375C157.984 183.311 156.919 182.209 155.894 181.1L155.384 180.549L155.803 179.939C156.463 178.977 157.184 176.89 156.82 175.476L156.667 174.877L157.188 174.487C163.168 170.011 173.378 163.042 181.322 158.381L182.03 157.965L182.646 158.488C183.435 159.16 186.008 159.38 187.84 158.933L188.442 158.786L188.884 159.186C190.84 160.961 192.807 163.222 194.388 165.041C194.951 165.687 195.48 166.298 195.934 166.796L196.572 167.499L195.854 168.134C195.459 168.485 193.522 170.331 194.15 172.36L194.378 173.096L193.654 173.483C185.644 177.744 176.388 183.177 169.495 187.661L169.056 187.945Z" fill="#40BB6A"/>
<path d="M179.696 175.109H179.698H179.696ZM176.89 168.862C176.025 168.862 175.14 169.151 174.428 169.733C173.704 170.323 173.265 171.122 173.192 171.982C173.12 172.826 173.412 173.629 174.013 174.243C174.614 174.858 175.457 175.212 176.386 175.241C177.321 175.271 178.249 174.963 178.973 174.374C180.454 173.163 180.64 171.14 179.388 169.862C178.736 169.198 177.825 168.862 176.89 168.862V168.862ZM176.513 177.219C176.445 177.219 176.378 177.218 176.31 177.215C174.786 177.168 173.397 176.58 172.398 175.561C171.4 174.541 170.916 173.217 171.032 171.831C171.148 170.46 171.841 169.191 172.984 168.258C175.354 166.324 178.952 166.452 181.001 168.544C183.052 170.635 182.788 173.911 180.417 175.845C179.326 176.736 177.946 177.219 176.513 177.219" fill="#40BB6A"/>
<path d="M240.577 123.664L247.424 126.635L249.836 121.851L243.437 118.865L240.577 123.664Z" fill="#F03B2B"/>
<path d="M233.369 143.588C235.489 131.461 239.09 126.302 246.875 114.222C250.33 116.641 255.378 115.84 257.697 112.344C259.502 109.624 258.918 106.036 256.334 103.902C255.39 103.121 254.298 102.609 253.161 102.35C242.813 96.0793 247.641 76.401 233.674 64.9848C233.674 64.9848 232.182 64.4653 229.629 64.9629C227.019 65.4713 224.761 66.7364 223.11 68.6487C219.227 73.1397 210.409 86.4269 207.93 90.317C201.387 100.585 200.258 108.738 209.378 115.377C209.499 115.464 209.645 115.57 209.818 115.687C208.369 119.027 203.089 127.101 199.247 130.667C198.051 135.16 200.618 139.294 204.398 141.197C215.305 146.685 233.369 143.588 233.369 143.588Z" fill="#C06852"/>
<path d="M135.534 149.68C135.425 149.68 135.314 149.657 135.21 149.608C134.853 149.445 134.712 149.048 134.892 148.724C137.976 143.158 140.468 139.831 143.492 137.245C148.39 133.057 157.826 129.888 164.497 127.869C164.876 127.755 165.284 127.942 165.409 128.287C165.536 128.633 165.33 129.005 164.952 129.121C158.409 131.1 149.17 134.196 144.48 138.206C141.588 140.68 139.182 143.899 136.18 149.318C136.053 149.548 135.798 149.68 135.534 149.68Z" fill="#3D3E9E"/>
<path d="M209.818 115.685C212.309 116.668 217.855 117.978 221.623 117.586C216.894 120.153 207.869 119.311 207.869 119.311L209.818 115.685Z" fill="#98493E"/>
<path d="M254.42 111.496C254.264 111.496 254.107 111.45 253.975 111.355C253.661 111.13 253.607 110.715 253.852 110.43C254.463 109.721 254.705 108.872 254.517 108.099C254.332 107.335 253.739 106.689 252.848 106.278C252.493 106.113 252.349 105.718 252.529 105.393C252.711 105.068 253.145 104.938 253.5 105.103C254.783 105.694 255.645 106.656 255.927 107.814C256.209 108.973 255.867 110.222 254.988 111.244C254.845 111.41 254.633 111.496 254.42 111.496Z" fill="#8B3A37"/>
<path d="M220.866 83.6379C220.149 84.8932 218.913 85.6 218.106 85.2156C217.298 84.8312 217.226 83.504 217.944 82.2475C218.661 80.9933 219.896 80.2866 220.702 80.671C221.509 81.0541 221.582 82.3837 220.866 83.6379Z" fill="#262628"/>
<path d="M239.222 92.0279C238.506 93.2832 238.579 94.6116 239.386 94.9948C240.194 95.3792 241.429 94.6736 242.145 93.4183C242.862 92.1617 242.79 90.8346 241.982 90.4502C241.175 90.067 239.939 90.7725 239.222 92.0279Z" fill="#262628"/>
<path d="M247.598 90.5234C247.159 90.5234 246.774 90.2303 246.707 89.8216C246.19 86.6807 244.934 84.3902 240.475 83.4243C239.99 83.3185 239.69 82.8745 239.805 82.4329C239.921 81.9901 240.407 81.7189 240.893 81.8223C246.673 83.074 247.978 86.4447 248.491 89.5783C248.566 90.0283 248.226 90.4468 247.734 90.5137C247.687 90.521 247.642 90.5234 247.598 90.5234Z" fill="#262628"/>
<path d="M218.688 96.2852C218.565 96.2852 218.443 96.2584 218.329 96.1988C217.441 95.7341 215.897 94.5177 215.536 93.2295C215.38 92.6723 215.456 92.1408 215.757 91.6907C216.441 90.6701 217.777 90.2687 219.192 89.8441C219.92 89.6264 220.672 89.4013 221.333 89.0863C223.327 88.1411 224.9 87.0694 226.581 84.656C226.795 84.3495 227.241 84.2595 227.577 84.4541C227.915 84.65 228.013 85.0575 227.8 85.3628C225.952 88.0158 224.145 89.2371 222 90.2553C221.235 90.619 220.425 90.8611 219.644 91.0958C218.488 91.4437 217.396 91.7697 216.991 92.378C216.929 92.4692 216.856 92.6225 216.935 92.9022C217.157 93.6941 218.325 94.6782 219.048 95.0541C219.393 95.2366 219.513 95.638 219.315 95.9543C219.181 96.1659 218.937 96.2852 218.688 96.2852Z" fill="#8B3A37"/>
<path d="M227.514 77.2852C227.211 77.2852 226.918 77.1477 226.747 76.8959C225.059 74.4168 221.222 73.8475 219.64 74.2368C219.156 74.3548 218.663 74.0957 218.534 73.6565C218.403 73.2162 218.688 72.7649 219.17 72.6469C221.554 72.0594 226.17 72.9267 228.28 76.0274C228.542 76.4142 228.412 76.9214 227.988 77.1611C227.84 77.245 227.676 77.2852 227.514 77.2852Z" fill="#262628"/>
<path d="M255.835 88.0254C255.484 88.0254 255.151 87.8381 255.006 87.5254C253.335 83.954 249.964 82.5478 247.431 81.9967C246.946 81.8909 246.647 81.4469 246.762 81.0053C246.878 80.5613 247.366 80.2889 247.85 80.3947C250.787 81.0333 254.699 82.6779 256.666 86.8783C256.862 87.2967 256.647 87.7809 256.19 87.9585C256.074 88.0035 255.954 88.0254 255.835 88.0254Z" fill="#262628"/>
<path d="M246.876 114.881C246.721 114.881 246.565 114.836 246.433 114.742C245.921 114.378 245.173 113.785 244.516 113.015C244.272 112.728 244.328 112.314 244.642 112.09C244.957 111.867 245.41 111.918 245.656 112.206C246.097 112.723 246.686 113.253 247.32 113.702C247.634 113.926 247.69 114.34 247.446 114.627C247.304 114.793 247.09 114.881 246.876 114.881Z" fill="#8B3A37"/>
<path d="M227.123 105.615C224.06 112.006 211.954 109.544 212.42 102.564C212.464 101.917 212.991 101.371 213.599 101.515L226.75 104.63C227.168 104.73 227.326 105.191 227.123 105.615Z" fill="#863738"/>
<path d="M227.123 105.615C227.326 105.19 227.168 104.729 226.75 104.63L213.599 101.514C212.991 101.371 212.464 101.917 212.42 102.564C212.41 102.732 212.412 102.894 212.415 103.056L226.647 106.424C226.82 106.171 226.984 105.904 227.123 105.615Z" fill="white"/>
<path d="M206.816 200.344C206.756 200.344 206.696 200.336 206.636 200.322C206.359 200.259 206.08 200.195 205.799 200.132L204.944 199.945L205.313 199.215C205.844 198.171 206.643 196.736 207.567 195.073C209.383 191.809 211.643 187.748 212.747 185.019C212.885 184.677 213.299 184.503 213.675 184.629C214.048 184.756 214.239 185.135 214.101 185.475C212.968 188.275 210.687 192.375 208.855 195.669C208.136 196.962 207.493 198.116 207 199.048C207.383 199.141 207.613 199.498 207.513 199.849C207.431 200.145 207.137 200.344 206.816 200.344Z" fill="#3D3E9E"/>
<path d="M103.952 58.6621C103.81 58.6621 103.663 58.6232 103.536 58.5405C103.211 58.3312 103.134 57.9201 103.364 57.6233C104.76 55.8193 106.471 54.0287 108.743 51.9924C109.028 51.7382 109.484 51.7406 109.763 51.9997C110.043 52.2588 110.039 52.676 109.756 52.9315C107.546 54.9131 105.89 56.6453 104.543 58.3835C104.403 58.5648 104.179 58.6621 103.952 58.6621Z" fill="#8B3A37"/>
<path d="M114.195 121.633C113.993 121.633 113.792 121.556 113.649 121.405C113.389 121.13 113.421 120.714 113.723 120.477L120.125 115.413C120.428 115.175 120.884 115.204 121.145 115.479C121.405 115.755 121.373 116.171 121.072 116.408L114.667 121.472C114.531 121.581 114.363 121.633 114.195 121.633Z" fill="#8B3A37"/>
<path d="M249.037 56.7426C263.792 61.972 260.146 94.0263 253.36 102.555C255.629 102.905 256.81 104.21 257.318 104.867C258.349 104.17 272.906 81.1966 266.198 65.4012C265.049 62.6958 263.273 60.4478 260.046 58.8288C256.398 58.0904 252.797 57.324 249.037 56.7426Z" fill="#F03B2B"/>
<path d="M86.8766 215.975C86.6206 215.975 86.3713 215.848 86.2393 215.628C86.0526 215.307 86.1833 214.908 86.534 214.735L119.086 198.777C119.438 198.605 119.875 198.726 120.065 199.045C120.253 199.367 120.122 199.766 119.77 199.937L87.218 215.897C87.11 215.949 86.9926 215.975 86.8766 215.975Z" fill="#BF1E24"/>
<path d="M124.181 223.016C123.981 223.016 123.781 222.94 123.639 222.791C123.376 222.518 123.405 222.102 123.705 221.862L134.621 213.107C134.921 212.867 135.377 212.895 135.64 213.167C135.904 213.441 135.875 213.857 135.575 214.097L124.657 222.851C124.521 222.961 124.351 223.016 124.181 223.016Z" fill="#BF1E24"/>
<path d="M152.338 228.121C152.158 228.121 151.978 228.06 151.839 227.939L109.4 190.868C109.112 190.616 109.102 190.199 109.378 189.936C109.654 189.673 110.111 189.665 110.399 189.917L152.838 226.986C153.126 227.238 153.136 227.654 152.86 227.918C152.718 228.053 152.528 228.121 152.338 228.121Z" fill="#BF1E24"/>
<path d="M247.537 154.237C251.716 171.857 235.365 205.855 229.904 211.736C228.721 213.01 227.734 214.063 227.754 215.354C228.585 215.365 229.288 215.427 229.829 215.551C235.786 216.923 236.117 217.91 236.117 217.91C236.425 218.44 236.562 218.744 236.562 218.744C242.492 208.738 248.813 197.342 251.857 184.999C253.893 176.745 255.852 164.631 247.537 154.237Z" fill="#534DAA"/>
<path d="M170.116 208.927C174.178 219.559 166.867 227.462 166.867 227.462L164.83 227.877H184.878L170.116 208.927Z" fill="#534DAA"/>
<path d="M226.88 228.535H2.44448C2.04581 228.535 1.72314 228.241 1.72314 227.877C1.72314 227.512 2.04581 227.218 2.44448 227.218H226.88C227.28 227.218 227.603 227.512 227.603 227.877C227.603 228.241 227.28 228.535 226.88 228.535Z" fill="white"/>
<path d="M236.117 217.939C229.782 228.515 222.975 237.817 216.402 243.456C211.323 247.813 202.755 246.728 198.423 242.996C190.125 235.845 160.942 199.324 160.942 199.324C154.517 197.195 148.425 191.409 146.37 189.451C143.49 186.708 139.518 183.338 135.391 179.885C133.755 178.517 133.395 177.625 133.779 176.646C134.249 175.445 136.007 174.919 137.833 175.594C140.531 176.594 144.601 179.43 147.451 181.029C147.485 181.048 147.519 181.008 147.49 180.984C146.057 179.801 138.905 173.879 135.786 170.831C134.202 169.286 134.001 167.905 134.599 166.922C135.317 165.744 137.319 165.053 138.918 166.331C140.589 167.666 147.839 173.257 151.303 175.827C151.327 175.845 151.361 175.816 151.339 175.794C149.997 174.405 142.474 166.547 140.198 162.78C139.002 160.803 139.601 159.529 140.75 158.897C142.593 157.882 143.997 158.391 145.105 159.386C147.165 161.236 154.302 169.812 156.693 172.075C156.766 172.145 156.893 172.066 156.846 171.978C155.739 169.859 151.639 163.457 149.698 160.035C147.606 156.35 152.407 155.248 153.989 157.09C155.573 158.932 159.093 163.098 160.93 165.862C162.769 168.627 167.149 173.913 168.014 175.246C167.361 173.29 167.239 172.707 166.133 169.584C164.446 164.829 168.087 162.152 170.043 163.353C172.001 164.555 175.389 172.605 177.263 177.056C179.033 181.257 179.334 182.586 179.83 186.006C180.157 188.267 182.086 190.484 183.113 191.475C190.779 198.885 196.754 204.553 201.286 208.732C201.286 208.732 203.583 205.051 206.891 199.9C216.382 201.492 226.741 207.962 229.263 209.959C234.523 214.123 236.117 217.939 236.117 217.939Z" fill="#C06852"/>
<path d="M210.709 217.816C210.404 217.816 210.101 217.552 209.617 217.13C209.242 216.804 208.685 216.314 207.949 215.657C206.64 214.491 204.445 212.515 201.412 209.723C201.13 209.466 201.133 209.048 201.416 208.792C201.7 208.536 202.157 208.537 202.437 208.797C207.976 213.893 210.849 216.388 211.125 216.619C211.181 216.66 211.232 216.707 211.274 216.763C211.486 217.043 211.429 217.427 211.141 217.644C210.985 217.763 210.848 217.816 210.709 217.816Z" fill="#8B3A37"/>
<path d="M230.521 211.008C224.177 222.641 216.064 238.86 204.637 245.92C208.66 246.779 213.216 246.188 216.401 243.455C222.975 237.816 229.781 228.515 236.116 217.938C236.116 217.938 235.109 214.894 230.521 211.008" fill="#B35A48"/>
<path d="M162.323 201.941L165.214 205.908L184.413 192.267L181.613 188.677L162.323 201.941Z" fill="#262628"/>
<path d="M175.034 192.508C172.146 191.838 169.209 193.432 168.474 196.068C167.74 198.702 169.486 201.382 172.376 202.052C175.264 202.721 178.201 201.129 178.936 198.494C179.67 195.858 177.924 193.179 175.034 192.508Z" fill="#FAB80A"/>
<path d="M172.033 199.803C171.961 199.803 171.89 199.783 171.828 199.744C171.664 199.64 171.622 199.434 171.736 199.286L173.35 197.169L173.566 193.941C173.58 193.759 173.745 193.617 173.949 193.633C174.149 193.644 174.3 193.798 174.288 193.981L174.06 197.394L172.33 199.662C172.26 199.754 172.146 199.803 172.033 199.803Z" fill="white"/>
<path d="M113.445 23.8267C113.921 20.872 111.471 19.2857 108.085 18.2189L109.171 14.2132L106.491 13.6038L105.433 17.5012C104.738 17.3443 104.023 17.1971 103.298 17.0451L104.374 13.116L101.677 12.5065L100.598 16.5135C100.017 16.3967 99.4445 16.275 98.8912 16.1485L98.9005 16.1364L95.2005 15.2995L94.5045 17.9014C94.5045 17.9014 96.4872 18.3199 96.4498 18.3406C97.5272 18.5887 97.7178 19.2407 97.6898 19.7638L96.4498 24.3315C96.5072 24.3485 96.6125 24.3704 96.7165 24.4094C96.6312 24.3923 96.5352 24.3656 96.4205 24.3485L94.6858 30.7445C94.5525 31.0438 94.1978 31.4927 93.4658 31.3224C93.4832 31.3564 91.5192 30.8832 91.5192 30.8832L90.1938 33.6762L93.6752 34.4681C94.3232 34.6152 94.9325 34.7673 95.5725 34.9157L94.4672 38.9652L97.1365 39.5747L98.2245 35.5628C98.9592 35.7465 99.6738 35.912 100.369 36.0677L99.2632 40.0624L101.933 40.6719L103.059 36.6248C107.618 37.4082 111.031 37.0943 112.49 33.3283C113.645 30.2993 112.433 28.5513 110.039 27.4115C111.785 27.0454 113.082 25.9932 113.445 23.8267ZM107.331 31.6496C106.491 34.6761 100.922 33.04 99.1005 32.6312L100.57 27.2546C102.391 27.6682 108.198 28.4905 107.331 31.6496V31.6496ZM108.151 23.7878C107.409 26.5405 102.763 25.1404 101.238 24.801L102.582 19.9292C104.089 20.2674 108.933 20.9121 108.151 23.7878" fill="white"/>
<path d="M36.4147 71.7033L36.2827 72.1266V84.4345L36.4147 84.5586L42.6814 81.1806L36.4147 71.7033Z" fill="#2F2E2E"/>
<path d="M36.4147 71.7033L30.1533 81.1806L36.4147 84.5586V78.5859V71.7033Z" fill="#878989"/>
<path d="M36.4145 85.638L36.3345 85.7268V90.1108L36.4145 90.3164L42.6878 82.2648L36.4145 85.638Z" fill="#373636"/>
<path d="M36.4147 90.3164V85.638L30.1533 82.2648L36.4147 90.3164Z" fill="#878989"/>
<path d="M36.4146 84.5586L42.6812 81.1806L36.4146 78.5859V84.5586Z" fill="#191716"/>
<path d="M30.1533 81.1806L36.4147 84.5586V78.5859L30.1533 81.1806Z" fill="#343334"/>
<path d="M185.035 33.7604V33.7555C184.94 33.7628 184.463 33.7884 183.383 33.7884C182.531 33.7884 181.916 33.7653 181.716 33.7555V33.7604C178.417 33.6254 175.945 33.1011 175.945 32.4746C175.945 31.8482 178.417 31.3239 181.716 31.1888V33.2385C181.916 33.2483 182.552 33.2811 183.404 33.2811C184.425 33.2811 184.94 33.2458 185.035 33.2385V31.1888C188.328 31.3239 190.784 31.8482 190.784 32.4722C190.784 33.0986 188.328 33.6254 185.035 33.7555V33.7604ZM185.035 30.976V29.1428H189.635V26.3486H177.115V29.1428H181.709V30.9735C177.977 31.1329 175.167 31.8068 175.167 32.6157C175.167 33.4222 177.983 34.0973 181.709 34.2579V40.1309H185.035V34.2579C188.756 34.0973 191.567 33.4222 191.567 32.6157C191.567 31.8092 188.756 31.1353 185.035 30.976" fill="white"/>
</svg>
