<svg width="84" height="84" viewBox="0 0 84 84" fill="none" xmlns="http://www.w3.org/2000/svg">
<circle cx="42" cy="42" r="42" fill="#00343D"/>
<path d="M59.402 32.7264C60.3238 31.3629 60.9697 29.7602 61.2764 28.056C61.5156 27.1704 61.5858 26.2831 61.5858 25.3981C61.5858 23.5572 61.1063 21.921 60.3238 20.4214C59.402 18.9548 58.2767 17.83 56.742 16.9444C55.244 16.1252 53.4691 15.751 51.5288 15.751H32.6764C31.8572 15.751 31.4846 16.0572 31.2119 16.8758L22.3467 58.7366C22.2803 59.0093 22.2803 59.0795 22.2803 59.1459C22.2803 59.7248 22.6194 59.9651 23.269 59.9651H30.7329L32.3372 52.7016L34.9271 40.5337H46.3815C47.7429 40.5337 48.7651 40.9431 49.5843 41.8287C50.4704 42.7823 50.8792 43.9428 50.8792 45.3738C50.8792 45.7836 50.8128 46.2599 50.7096 46.7351C50.4704 47.794 49.9942 48.6796 49.2787 49.6349C48.6296 50.5205 47.7434 51.2689 46.6883 51.8149C45.5634 52.3943 44.4381 52.701 43.3127 52.701H42.5972L41.0626 59.9646H44.4381C46.6186 59.9646 48.7656 59.3155 50.8798 58.1901C52.9939 56.9983 54.7677 55.4637 56.2663 53.4532C57.8009 51.5092 58.7897 49.3287 59.2659 47.078C59.5052 46.0898 59.5716 45.1356 59.5716 44.1804C59.5716 42.5442 59.2659 41.0095 58.686 39.6465C58.14 38.283 57.255 37.1582 56.1296 36.2726C57.4937 35.3163 58.619 34.0894 59.402 32.7264ZM52.9933 28.2936C52.5835 29.8963 51.6984 31.1912 50.4029 32.1799C49.0383 33.2038 47.5037 33.6795 45.7325 33.6795H36.3916L38.6417 22.9087H48.392C49.9936 22.9087 51.1184 23.2149 51.9371 23.9638C52.7195 24.5784 53.1289 25.5671 53.1289 26.7605C53.1294 27.2384 53.063 27.7492 52.9933 28.2936ZM43.9586 26.5207H42.121C41.8482 26.5207 41.6085 26.6239 41.4384 26.7605C41.1986 26.9981 41.1322 27.2384 41.062 27.5095L40.4162 30.4077H44.0277L44.6071 27.5095C44.6768 27.408 44.6768 27.3399 44.6768 27.1704C44.6773 26.7605 44.4381 26.5207 43.9586 26.5207ZM58.6855 64.9374H36.6977L37.0406 63.1997L40.0068 49.3973L41.1986 43.77H37.5866L35.5729 53.349L33.4955 63.1992L32.6099 67.4603C32.5068 67.5305 32.5068 67.6002 32.5068 67.7665C32.5068 68.1796 32.7466 68.3124 33.2223 68.3124H57.9699C58.2761 68.3124 58.5488 68.246 58.7891 68.1094C59.0289 67.9398 59.0953 67.7001 59.165 67.4603L59.5046 65.7561C59.571 65.7561 59.571 65.6896 59.571 65.5897C59.571 65.1102 59.2654 64.9374 58.6855 64.9374Z" fill="white"/>
</svg>
